<?xml version="1.0" encoding="utf-8" standalone="no"?>
<!DOCTYPE svg PUBLIC "-//W3C//DTD SVG 1.1//EN"
  "http://www.w3.org/Graphics/SVG/1.1/DTD/svg11.dtd">
<svg xmlns:xlink="http://www.w3.org/1999/xlink" width="998.381282pt" height="434.105625pt" viewBox="0 0 998.381282 434.105625" xmlns="http://www.w3.org/2000/svg" version="1.1">
 <metadata>
  <rdf:RDF xmlns:dc="http://purl.org/dc/elements/1.1/" xmlns:cc="http://creativecommons.org/ns#" xmlns:rdf="http://www.w3.org/1999/02/22-rdf-syntax-ns#">
   <cc:Work>
    <dc:type rdf:resource="http://purl.org/dc/dcmitype/StillImage"/>
    <dc:date>2026-05-12T14:50:20.031967</dc:date>
    <dc:format>image/svg+xml</dc:format>
    <dc:creator>
     <cc:Agent>
      <dc:title>Matplotlib v3.10.7, https://matplotlib.org/</dc:title>
     </cc:Agent>
    </dc:creator>
   </cc:Work>
  </rdf:RDF>
 </metadata>
 <defs>
  <style type="text/css">*{stroke-linejoin: round; stroke-linecap: butt}</style>
 </defs>
 <g id="figure_1">
  <g id="patch_1">
   <path d="M 0 434.105625 
L 998.381282 434.105625 
L 998.381282 0 
L 0 0 
z
" style="fill: #ffffff"/>
  </g>
  <g id="axes_1">
   <g id="patch_2">
    <path d="M 151.201562 79.136875 
L 819.637563 79.136875 
L 819.637563 22.318125 
L 151.201562 22.318125 
z
" style="fill: #ffffff"/>
   </g>
   <g id="patch_3">
    <path d="M 151.201562 76.554205 
L 433.849349 76.554205 
L 433.849349 61.796088 
L 151.201562 61.796088 
z
" clip-path="url(#p21386f343a)" style="fill: #1f77b4; stroke: #ffffff; stroke-width: 0.5; stroke-linejoin: miter"/>
   </g>
   <g id="patch_4">
    <path d="M 151.201562 58.106558 
L 188.822358 58.106558 
L 188.822358 43.348442 
L 151.201562 43.348442 
z
" clip-path="url(#p21386f343a)" style="fill: #1f77b4; stroke: #ffffff; stroke-width: 0.5; stroke-linejoin: miter"/>
   </g>
   <g id="patch_5">
    <path d="M 151.201562 39.658912 
L 334.299477 39.658912 
L 334.299477 24.900795 
L 151.201562 24.900795 
z
" clip-path="url(#p21386f343a)" style="fill: #1f77b4; stroke: #ffffff; stroke-width: 0.5; stroke-linejoin: miter"/>
   </g>
   <g id="patch_6">
    <path d="M 433.849349 76.554205 
L 478.77228 76.554205 
L 478.77228 61.796088 
L 433.849349 61.796088 
z
" clip-path="url(#p21386f343a)" style="fill: #aec7e8; stroke: #ffffff; stroke-width: 0.5; stroke-linejoin: miter"/>
   </g>
   <g id="patch_7">
    <path d="M 188.822358 58.106558 
L 248.288971 58.106558 
L 248.288971 43.348442 
L 188.822358 43.348442 
z
" clip-path="url(#p21386f343a)" style="fill: #aec7e8; stroke: #ffffff; stroke-width: 0.5; stroke-linejoin: miter"/>
   </g>
   <g id="patch_8">
    <path d="M 334.299477 39.658912 
L 472.207516 39.658912 
L 472.207516 24.900795 
L 334.299477 24.900795 
z
" clip-path="url(#p21386f343a)" style="fill: #aec7e8; stroke: #ffffff; stroke-width: 0.5; stroke-linejoin: miter"/>
   </g>
   <g id="patch_9">
    <path d="M 478.77228 76.554205 
L 496.696386 76.554205 
L 496.696386 61.796088 
L 478.77228 61.796088 
z
" clip-path="url(#p21386f343a)" style="fill: #ff7f0e; stroke: #ffffff; stroke-width: 0.5; stroke-linejoin: miter"/>
   </g>
   <g id="patch_10">
    <path d="M 248.288971 58.106558 
L 321.690915 58.106558 
L 321.690915 43.348442 
L 248.288971 43.348442 
z
" clip-path="url(#p21386f343a)" style="fill: #ff7f0e; stroke: #ffffff; stroke-width: 0.5; stroke-linejoin: miter"/>
   </g>
   <g id="patch_11">
    <path d="M 472.207516 39.658912 
L 537.507762 39.658912 
L 537.507762 24.900795 
L 472.207516 24.900795 
z
" clip-path="url(#p21386f343a)" style="fill: #ff7f0e; stroke: #ffffff; stroke-width: 0.5; stroke-linejoin: miter"/>
   </g>
   <g id="patch_12">
    <path d="M 496.696386 76.554205 
L 529.861103 76.554205 
L 529.861103 61.796088 
L 496.696386 61.796088 
z
" clip-path="url(#p21386f343a)" style="fill: #ffbb78; stroke: #ffffff; stroke-width: 0.5; stroke-linejoin: miter"/>
   </g>
   <g id="patch_13">
    <path d="M 321.690915 58.106558 
L 364.462725 58.106558 
L 364.462725 43.348442 
L 321.690915 43.348442 
z
" clip-path="url(#p21386f343a)" style="fill: #ffbb78; stroke: #ffffff; stroke-width: 0.5; stroke-linejoin: miter"/>
   </g>
   <g id="patch_14">
    <path d="M 537.507762 39.658912 
L 572.700912 39.658912 
L 572.700912 24.900795 
L 537.507762 24.900795 
z
" clip-path="url(#p21386f343a)" style="fill: #ffbb78; stroke: #ffffff; stroke-width: 0.5; stroke-linejoin: miter"/>
   </g>
   <g id="patch_15">
    <path d="M 529.861103 76.554205 
L 554.68855 76.554205 
L 554.68855 61.796088 
L 529.861103 61.796088 
z
" clip-path="url(#p21386f343a)" style="fill: #2ca02c; stroke: #ffffff; stroke-width: 0.5; stroke-linejoin: miter"/>
   </g>
   <g id="patch_16">
    <path d="M 364.462725 58.106558 
L 403.279292 58.106558 
L 403.279292 43.348442 
L 364.462725 43.348442 
z
" clip-path="url(#p21386f343a)" style="fill: #2ca02c; stroke: #ffffff; stroke-width: 0.5; stroke-linejoin: miter"/>
   </g>
   <g id="patch_17">
    <path d="M 572.700912 39.658912 
L 616.429277 39.658912 
L 616.429277 24.900795 
L 572.700912 24.900795 
z
" clip-path="url(#p21386f343a)" style="fill: #2ca02c; stroke: #ffffff; stroke-width: 0.5; stroke-linejoin: miter"/>
   </g>
   <g id="patch_18">
    <path d="M 554.68855 76.554205 
L 562.165463 76.554205 
L 562.165463 61.796088 
L 554.68855 61.796088 
z
" clip-path="url(#p21386f343a)" style="fill: #98df8a; stroke: #ffffff; stroke-width: 0.5; stroke-linejoin: miter"/>
   </g>
   <g id="patch_19">
    <path d="M 403.279292 58.106558 
L 443.015682 58.106558 
L 443.015682 43.348442 
L 403.279292 43.348442 
z
" clip-path="url(#p21386f343a)" style="fill: #98df8a; stroke: #ffffff; stroke-width: 0.5; stroke-linejoin: miter"/>
   </g>
   <g id="patch_20">
    <path d="M 616.429277 39.658912 
L 666.763665 39.658912 
L 666.763665 24.900795 
L 616.429277 24.900795 
z
" clip-path="url(#p21386f343a)" style="fill: #98df8a; stroke: #ffffff; stroke-width: 0.5; stroke-linejoin: miter"/>
   </g>
   <g id="patch_21">
    <path d="M 562.165463 76.554205 
L 599.468088 76.554205 
L 599.468088 61.796088 
L 562.165463 61.796088 
z
" clip-path="url(#p21386f343a)" style="fill: #d62728; stroke: #ffffff; stroke-width: 0.5; stroke-linejoin: miter"/>
   </g>
   <g id="patch_22">
    <path d="M 443.015682 58.106558 
L 466.195244 58.106558 
L 466.195244 43.348442 
L 443.015682 43.348442 
z
" clip-path="url(#p21386f343a)" style="fill: #d62728; stroke: #ffffff; stroke-width: 0.5; stroke-linejoin: miter"/>
   </g>
   <g id="patch_23">
    <path d="M 666.763665 39.658912 
L 678.046519 39.658912 
L 678.046519 24.900795 
L 666.763665 24.900795 
z
" clip-path="url(#p21386f343a)" style="fill: #d62728; stroke: #ffffff; stroke-width: 0.5; stroke-linejoin: miter"/>
   </g>
   <g id="patch_24">
    <path d="M 599.468088 76.554205 
L 599.468088 76.554205 
L 599.468088 61.796088 
L 599.468088 61.796088 
z
" clip-path="url(#p21386f343a)" style="fill: #ff9896; stroke: #ffffff; stroke-width: 0.5; stroke-linejoin: miter"/>
   </g>
   <g id="patch_25">
    <path d="M 466.195244 58.106558 
L 510.484763 58.106558 
L 510.484763 43.348442 
L 466.195244 43.348442 
z
" clip-path="url(#p21386f343a)" style="fill: #ff9896; stroke: #ffffff; stroke-width: 0.5; stroke-linejoin: miter"/>
   </g>
   <g id="patch_26">
    <path d="M 678.046519 39.658912 
L 697.630747 39.658912 
L 697.630747 24.900795 
L 678.046519 24.900795 
z
" clip-path="url(#p21386f343a)" style="fill: #ff9896; stroke: #ffffff; stroke-width: 0.5; stroke-linejoin: miter"/>
   </g>
   <g id="patch_27">
    <path d="M 599.468088 76.554205 
L 622.349489 76.554205 
L 622.349489 61.796088 
L 599.468088 61.796088 
z
" clip-path="url(#p21386f343a)" style="fill: #9467bd; stroke: #ffffff; stroke-width: 0.5; stroke-linejoin: miter"/>
   </g>
   <g id="patch_28">
    <path d="M 510.484763 58.106558 
L 542.954545 58.106558 
L 542.954545 43.348442 
L 510.484763 43.348442 
z
" clip-path="url(#p21386f343a)" style="fill: #9467bd; stroke: #ffffff; stroke-width: 0.5; stroke-linejoin: miter"/>
   </g>
   <g id="patch_29">
    <path d="M 697.630747 39.658912 
L 705.464438 39.658912 
L 705.464438 24.900795 
L 697.630747 24.900795 
z
" clip-path="url(#p21386f343a)" style="fill: #9467bd; stroke: #ffffff; stroke-width: 0.5; stroke-linejoin: miter"/>
   </g>
   <g id="patch_30">
    <path d="M 622.349489 76.554205 
L 663.236935 76.554205 
L 663.236935 61.796088 
L 622.349489 61.796088 
z
" clip-path="url(#p21386f343a)" style="fill: #c5b0d5; stroke: #ffffff; stroke-width: 0.5; stroke-linejoin: miter"/>
   </g>
   <g id="patch_31">
    <path d="M 542.954545 58.106558 
L 556.246 58.106558 
L 556.246 43.348442 
L 542.954545 43.348442 
z
" clip-path="url(#p21386f343a)" style="fill: #c5b0d5; stroke: #ffffff; stroke-width: 0.5; stroke-linejoin: miter"/>
   </g>
   <g id="patch_32">
    <path d="M 705.464438 39.658912 
L 705.464438 39.658912 
L 705.464438 24.900795 
L 705.464438 24.900795 
z
" clip-path="url(#p21386f343a)" style="fill: #c5b0d5; stroke: #ffffff; stroke-width: 0.5; stroke-linejoin: miter"/>
   </g>
   <g id="patch_33">
    <path d="M 663.236935 76.554205 
L 663.236935 76.554205 
L 663.236935 61.796088 
L 663.236935 61.796088 
z
" clip-path="url(#p21386f343a)" style="fill: #8c564b; stroke: #ffffff; stroke-width: 0.5; stroke-linejoin: miter"/>
   </g>
   <g id="patch_34">
    <path d="M 556.246 58.106558 
L 579.793491 58.106558 
L 579.793491 43.348442 
L 556.246 43.348442 
z
" clip-path="url(#p21386f343a)" style="fill: #8c564b; stroke: #ffffff; stroke-width: 0.5; stroke-linejoin: miter"/>
   </g>
   <g id="patch_35">
    <path d="M 705.464438 39.658912 
L 732.063911 39.658912 
L 732.063911 24.900795 
L 705.464438 24.900795 
z
" clip-path="url(#p21386f343a)" style="fill: #8c564b; stroke: #ffffff; stroke-width: 0.5; stroke-linejoin: miter"/>
   </g>
   <g id="patch_36">
    <path d="M 663.236935 76.554205 
L 675.118057 76.554205 
L 675.118057 61.796088 
L 663.236935 61.796088 
z
" clip-path="url(#p21386f343a)" style="fill: #c49c94; stroke: #ffffff; stroke-width: 0.5; stroke-linejoin: miter"/>
   </g>
   <g id="patch_37">
    <path d="M 579.793491 58.106558 
L 617.230322 58.106558 
L 617.230322 43.348442 
L 579.793491 43.348442 
z
" clip-path="url(#p21386f343a)" style="fill: #c49c94; stroke: #ffffff; stroke-width: 0.5; stroke-linejoin: miter"/>
   </g>
   <g id="patch_38">
    <path d="M 732.063911 39.658912 
L 732.063911 39.658912 
L 732.063911 24.900795 
L 732.063911 24.900795 
z
" clip-path="url(#p21386f343a)" style="fill: #c49c94; stroke: #ffffff; stroke-width: 0.5; stroke-linejoin: miter"/>
   </g>
   <g id="patch_39">
    <path d="M 675.118057 76.554205 
L 682.328669 76.554205 
L 682.328669 61.796088 
L 675.118057 61.796088 
z
" clip-path="url(#p21386f343a)" style="fill: #e377c2; stroke: #ffffff; stroke-width: 0.5; stroke-linejoin: miter"/>
   </g>
   <g id="patch_40">
    <path d="M 617.230322 58.106558 
L 629.923891 58.106558 
L 629.923891 43.348442 
L 617.230322 43.348442 
z
" clip-path="url(#p21386f343a)" style="fill: #e377c2; stroke: #ffffff; stroke-width: 0.5; stroke-linejoin: miter"/>
   </g>
   <g id="patch_41">
    <path d="M 732.063911 39.658912 
L 755.681905 39.658912 
L 755.681905 24.900795 
L 732.063911 24.900795 
z
" clip-path="url(#p21386f343a)" style="fill: #e377c2; stroke: #ffffff; stroke-width: 0.5; stroke-linejoin: miter"/>
   </g>
   <g id="patch_42">
    <path d="M 682.328669 76.554205 
L 689.867036 76.554205 
L 689.867036 61.796088 
L 682.328669 61.796088 
z
" clip-path="url(#p21386f343a)" style="fill: #f7b6d2; stroke: #ffffff; stroke-width: 0.5; stroke-linejoin: miter"/>
   </g>
   <g id="patch_43">
    <path d="M 629.923891 58.106558 
L 653.609356 58.106558 
L 653.609356 43.348442 
L 629.923891 43.348442 
z
" clip-path="url(#p21386f343a)" style="fill: #f7b6d2; stroke: #ffffff; stroke-width: 0.5; stroke-linejoin: miter"/>
   </g>
   <g id="patch_44">
    <path d="M 755.681905 39.658912 
L 764.626344 39.658912 
L 764.626344 24.900795 
L 755.681905 24.900795 
z
" clip-path="url(#p21386f343a)" style="fill: #f7b6d2; stroke: #ffffff; stroke-width: 0.5; stroke-linejoin: miter"/>
   </g>
   <g id="patch_45">
    <path d="M 689.867036 76.554205 
L 726.002033 76.554205 
L 726.002033 61.796088 
L 689.867036 61.796088 
z
" clip-path="url(#p21386f343a)" style="fill: #7f7f7f; stroke: #ffffff; stroke-width: 0.5; stroke-linejoin: miter"/>
   </g>
   <g id="patch_46">
    <path d="M 653.609356 58.106558 
L 653.609356 58.106558 
L 653.609356 43.348442 
L 653.609356 43.348442 
z
" clip-path="url(#p21386f343a)" style="fill: #7f7f7f; stroke: #ffffff; stroke-width: 0.5; stroke-linejoin: miter"/>
   </g>
   <g id="patch_47">
    <path d="M 764.626344 39.658912 
L 764.626344 39.658912 
L 764.626344 24.900795 
L 764.626344 24.900795 
z
" clip-path="url(#p21386f343a)" style="fill: #7f7f7f; stroke: #ffffff; stroke-width: 0.5; stroke-linejoin: miter"/>
   </g>
   <g id="patch_48">
    <path d="M 726.002033 76.554205 
L 726.002033 76.554205 
L 726.002033 61.796088 
L 726.002033 61.796088 
z
" clip-path="url(#p21386f343a)" style="fill: #c7c7c7; stroke: #ffffff; stroke-width: 0.5; stroke-linejoin: miter"/>
   </g>
   <g id="patch_49">
    <path d="M 653.609356 58.106558 
L 688.148742 58.106558 
L 688.148742 43.348442 
L 653.609356 43.348442 
z
" clip-path="url(#p21386f343a)" style="fill: #c7c7c7; stroke: #ffffff; stroke-width: 0.5; stroke-linejoin: miter"/>
   </g>
   <g id="patch_50">
    <path d="M 764.626344 39.658912 
L 764.626344 39.658912 
L 764.626344 24.900795 
L 764.626344 24.900795 
z
" clip-path="url(#p21386f343a)" style="fill: #c7c7c7; stroke: #ffffff; stroke-width: 0.5; stroke-linejoin: miter"/>
   </g>
   <g id="patch_51">
    <path d="M 726.002033 76.554205 
L 726.002033 76.554205 
L 726.002033 61.796088 
L 726.002033 61.796088 
z
" clip-path="url(#p21386f343a)" style="fill: #bcbd22; stroke: #ffffff; stroke-width: 0.5; stroke-linejoin: miter"/>
   </g>
   <g id="patch_52">
    <path d="M 688.148742 58.106558 
L 722.136233 58.106558 
L 722.136233 43.348442 
L 688.148742 43.348442 
z
" clip-path="url(#p21386f343a)" style="fill: #bcbd22; stroke: #ffffff; stroke-width: 0.5; stroke-linejoin: miter"/>
   </g>
   <g id="patch_53">
    <path d="M 764.626344 39.658912 
L 764.626344 39.658912 
L 764.626344 24.900795 
L 764.626344 24.900795 
z
" clip-path="url(#p21386f343a)" style="fill: #bcbd22; stroke: #ffffff; stroke-width: 0.5; stroke-linejoin: miter"/>
   </g>
   <g id="patch_54">
    <path d="M 726.002033 76.554205 
L 733.909125 76.554205 
L 733.909125 61.796088 
L 726.002033 61.796088 
z
" clip-path="url(#p21386f343a)" style="fill: #dbdb8d; stroke: #ffffff; stroke-width: 0.5; stroke-linejoin: miter"/>
   </g>
   <g id="patch_55">
    <path d="M 722.136233 58.106558 
L 735.381697 58.106558 
L 735.381697 43.348442 
L 722.136233 43.348442 
z
" clip-path="url(#p21386f343a)" style="fill: #dbdb8d; stroke: #ffffff; stroke-width: 0.5; stroke-linejoin: miter"/>
   </g>
   <g id="patch_56">
    <path d="M 764.626344 39.658912 
L 764.626344 39.658912 
L 764.626344 24.900795 
L 764.626344 24.900795 
z
" clip-path="url(#p21386f343a)" style="fill: #dbdb8d; stroke: #ffffff; stroke-width: 0.5; stroke-linejoin: miter"/>
   </g>
   <g id="patch_57">
    <path d="M 733.909125 76.554205 
L 742.205425 76.554205 
L 742.205425 61.796088 
L 733.909125 61.796088 
z
" clip-path="url(#p21386f343a)" style="fill: #17becf; stroke: #ffffff; stroke-width: 0.5; stroke-linejoin: miter"/>
   </g>
   <g id="patch_58">
    <path d="M 735.381697 58.106558 
L 745.315795 58.106558 
L 745.315795 43.348442 
L 735.381697 43.348442 
z
" clip-path="url(#p21386f343a)" style="fill: #17becf; stroke: #ffffff; stroke-width: 0.5; stroke-linejoin: miter"/>
   </g>
   <g id="patch_59">
    <path d="M 764.626344 39.658912 
L 764.626344 39.658912 
L 764.626344 24.900795 
L 764.626344 24.900795 
z
" clip-path="url(#p21386f343a)" style="fill: #17becf; stroke: #ffffff; stroke-width: 0.5; stroke-linejoin: miter"/>
   </g>
   <g id="patch_60">
    <path d="M 742.205425 76.554205 
L 749.948639 76.554205 
L 749.948639 61.796088 
L 742.205425 61.796088 
z
" clip-path="url(#p21386f343a)" style="fill: #9edae5; stroke: #ffffff; stroke-width: 0.5; stroke-linejoin: miter"/>
   </g>
   <g id="patch_61">
    <path d="M 745.315795 58.106558 
L 754.927954 58.106558 
L 754.927954 43.348442 
L 745.315795 43.348442 
z
" clip-path="url(#p21386f343a)" style="fill: #9edae5; stroke: #ffffff; stroke-width: 0.5; stroke-linejoin: miter"/>
   </g>
   <g id="patch_62">
    <path d="M 764.626344 39.658912 
L 764.626344 39.658912 
L 764.626344 24.900795 
L 764.626344 24.900795 
z
" clip-path="url(#p21386f343a)" style="fill: #9edae5; stroke: #ffffff; stroke-width: 0.5; stroke-linejoin: miter"/>
   </g>
   <g id="patch_63">
    <path d="M 749.948639 76.554205 
L 749.948639 76.554205 
L 749.948639 61.796088 
L 749.948639 61.796088 
z
" clip-path="url(#p21386f343a)" style="fill: #1f77b4; stroke: #ffffff; stroke-width: 0.5; stroke-linejoin: miter"/>
   </g>
   <g id="patch_64">
    <path d="M 754.927954 58.106558 
L 766.74769 58.106558 
L 766.74769 43.348442 
L 754.927954 43.348442 
z
" clip-path="url(#p21386f343a)" style="fill: #1f77b4; stroke: #ffffff; stroke-width: 0.5; stroke-linejoin: miter"/>
   </g>
   <g id="patch_65">
    <path d="M 764.626344 39.658912 
L 764.626344 39.658912 
L 764.626344 24.900795 
L 764.626344 24.900795 
z
" clip-path="url(#p21386f343a)" style="fill: #1f77b4; stroke: #ffffff; stroke-width: 0.5; stroke-linejoin: miter"/>
   </g>
   <g id="patch_66">
    <path d="M 749.948639 76.554205 
L 749.948639 76.554205 
L 749.948639 61.796088 
L 749.948639 61.796088 
z
" clip-path="url(#p21386f343a)" style="fill: #aec7e8; stroke: #ffffff; stroke-width: 0.5; stroke-linejoin: miter"/>
   </g>
   <g id="patch_67">
    <path d="M 766.74769 58.106558 
L 775.532008 58.106558 
L 775.532008 43.348442 
L 766.74769 43.348442 
z
" clip-path="url(#p21386f343a)" style="fill: #aec7e8; stroke: #ffffff; stroke-width: 0.5; stroke-linejoin: miter"/>
   </g>
   <g id="patch_68">
    <path d="M 764.626344 39.658912 
L 764.626344 39.658912 
L 764.626344 24.900795 
L 764.626344 24.900795 
z
" clip-path="url(#p21386f343a)" style="fill: #aec7e8; stroke: #ffffff; stroke-width: 0.5; stroke-linejoin: miter"/>
   </g>
   <g id="patch_69">
    <path d="M 749.948639 76.554205 
L 749.948639 76.554205 
L 749.948639 61.796088 
L 749.948639 61.796088 
z
" clip-path="url(#p21386f343a)" style="fill: #ff7f0e; stroke: #ffffff; stroke-width: 0.5; stroke-linejoin: miter"/>
   </g>
   <g id="patch_70">
    <path d="M 775.532008 58.106558 
L 775.532008 58.106558 
L 775.532008 43.348442 
L 775.532008 43.348442 
z
" clip-path="url(#p21386f343a)" style="fill: #ff7f0e; stroke: #ffffff; stroke-width: 0.5; stroke-linejoin: miter"/>
   </g>
   <g id="patch_71">
    <path d="M 764.626344 39.658912 
L 773.27848 39.658912 
L 773.27848 24.900795 
L 764.626344 24.900795 
z
" clip-path="url(#p21386f343a)" style="fill: #ff7f0e; stroke: #ffffff; stroke-width: 0.5; stroke-linejoin: miter"/>
   </g>
   <g id="patch_72">
    <path d="M 749.948639 76.554205 
L 749.948639 76.554205 
L 749.948639 61.796088 
L 749.948639 61.796088 
z
" clip-path="url(#p21386f343a)" style="fill: #ffbb78; stroke: #ffffff; stroke-width: 0.5; stroke-linejoin: miter"/>
   </g>
   <g id="patch_73">
    <path d="M 775.532008 58.106558 
L 775.532008 58.106558 
L 775.532008 43.348442 
L 775.532008 43.348442 
z
" clip-path="url(#p21386f343a)" style="fill: #ffbb78; stroke: #ffffff; stroke-width: 0.5; stroke-linejoin: miter"/>
   </g>
   <g id="patch_74">
    <path d="M 773.27848 39.658912 
L 780.93679 39.658912 
L 780.93679 24.900795 
L 773.27848 24.900795 
z
" clip-path="url(#p21386f343a)" style="fill: #ffbb78; stroke: #ffffff; stroke-width: 0.5; stroke-linejoin: miter"/>
   </g>
   <g id="patch_75">
    <path d="M 749.948639 76.554205 
L 757.50749 76.554205 
L 757.50749 61.796088 
L 749.948639 61.796088 
z
" clip-path="url(#p21386f343a)" style="fill: #2ca02c; stroke: #ffffff; stroke-width: 0.5; stroke-linejoin: miter"/>
   </g>
   <g id="patch_76">
    <path d="M 775.532008 58.106558 
L 775.532008 58.106558 
L 775.532008 43.348442 
L 775.532008 43.348442 
z
" clip-path="url(#p21386f343a)" style="fill: #2ca02c; stroke: #ffffff; stroke-width: 0.5; stroke-linejoin: miter"/>
   </g>
   <g id="patch_77">
    <path d="M 780.93679 39.658912 
L 780.93679 39.658912 
L 780.93679 24.900795 
L 780.93679 24.900795 
z
" clip-path="url(#p21386f343a)" style="fill: #2ca02c; stroke: #ffffff; stroke-width: 0.5; stroke-linejoin: miter"/>
   </g>
   <g id="patch_78">
    <path d="M 757.50749 76.554205 
L 757.50749 76.554205 
L 757.50749 61.796088 
L 757.50749 61.796088 
z
" clip-path="url(#p21386f343a)" style="fill: #98df8a; stroke: #ffffff; stroke-width: 0.5; stroke-linejoin: miter"/>
   </g>
   <g id="patch_79">
    <path d="M 775.532008 58.106558 
L 775.532008 58.106558 
L 775.532008 43.348442 
L 775.532008 43.348442 
z
" clip-path="url(#p21386f343a)" style="fill: #98df8a; stroke: #ffffff; stroke-width: 0.5; stroke-linejoin: miter"/>
   </g>
   <g id="patch_80">
    <path d="M 780.93679 39.658912 
L 787.835115 39.658912 
L 787.835115 24.900795 
L 780.93679 24.900795 
z
" clip-path="url(#p21386f343a)" style="fill: #98df8a; stroke: #ffffff; stroke-width: 0.5; stroke-linejoin: miter"/>
   </g>
   <g id="patch_81">
    <path d="M 757.50749 76.554205 
L 819.637563 76.554205 
L 819.637563 61.796088 
L 757.50749 61.796088 
z
" clip-path="url(#p21386f343a)" style="fill: #cccccc; stroke: #ffffff; stroke-width: 0.5; stroke-linejoin: miter"/>
   </g>
   <g id="patch_82">
    <path d="M 775.532008 58.106558 
L 819.637563 58.106558 
L 819.637563 43.348442 
L 775.532008 43.348442 
z
" clip-path="url(#p21386f343a)" style="fill: #cccccc; stroke: #ffffff; stroke-width: 0.5; stroke-linejoin: miter"/>
   </g>
   <g id="patch_83">
    <path d="M 787.835115 39.658912 
L 819.637563 39.658912 
L 819.637563 24.900795 
L 787.835115 24.900795 
z
" clip-path="url(#p21386f343a)" style="fill: #cccccc; stroke: #ffffff; stroke-width: 0.5; stroke-linejoin: miter"/>
   </g>
   <g id="matplotlib.axis_1">
    <g id="xtick_1">
     <g id="line2d_1">
      <defs>
       <path id="m44e9584c88" d="M 0 0 
L 0 3.5 
" style="stroke: #000000; stroke-width: 0.8"/>
      </defs>
      <g>
       <use xlink:href="#m44e9584c88" x="151.201562" y="79.136875" style="stroke: #000000; stroke-width: 0.8"/>
      </g>
     </g>
     <g id="text_1">
      <!-- 0 -->
      <g transform="translate(148.020312 93.735312) scale(0.1 -0.1)">
       <defs>
        <path id="DejaVuSans-30" d="M 2034 4250 
Q 1547 4250 1301 3770 
Q 1056 3291 1056 2328 
Q 1056 1369 1301 889 
Q 1547 409 2034 409 
Q 2525 409 2770 889 
Q 3016 1369 3016 2328 
Q 3016 3291 2770 3770 
Q 2525 4250 2034 4250 
z
M 2034 4750 
Q 2819 4750 3233 4129 
Q 3647 3509 3647 2328 
Q 3647 1150 3233 529 
Q 2819 -91 2034 -91 
Q 1250 -91 836 529 
Q 422 1150 422 2328 
Q 422 3509 836 4129 
Q 1250 4750 2034 4750 
z
" transform="scale(0.015625)"/>
       </defs>
       <use xlink:href="#DejaVuSans-30"/>
      </g>
     </g>
    </g>
    <g id="xtick_2">
     <g id="line2d_2">
      <g>
       <use xlink:href="#m44e9584c88" x="284.888762" y="79.136875" style="stroke: #000000; stroke-width: 0.8"/>
      </g>
     </g>
     <g id="text_2">
      <!-- 20 -->
      <g transform="translate(278.526262 93.735312) scale(0.1 -0.1)">
       <defs>
        <path id="DejaVuSans-32" d="M 1228 531 
L 3431 531 
L 3431 0 
L 469 0 
L 469 531 
Q 828 903 1448 1529 
Q 2069 2156 2228 2338 
Q 2531 2678 2651 2914 
Q 2772 3150 2772 3378 
Q 2772 3750 2511 3984 
Q 2250 4219 1831 4219 
Q 1534 4219 1204 4116 
Q 875 4013 500 3803 
L 500 4441 
Q 881 4594 1212 4672 
Q 1544 4750 1819 4750 
Q 2544 4750 2975 4387 
Q 3406 4025 3406 3419 
Q 3406 3131 3298 2873 
Q 3191 2616 2906 2266 
Q 2828 2175 2409 1742 
Q 1991 1309 1228 531 
z
" transform="scale(0.015625)"/>
       </defs>
       <use xlink:href="#DejaVuSans-32"/>
       <use xlink:href="#DejaVuSans-30" transform="translate(63.623047 0)"/>
      </g>
     </g>
    </g>
    <g id="xtick_3">
     <g id="line2d_3">
      <g>
       <use xlink:href="#m44e9584c88" x="418.575963" y="79.136875" style="stroke: #000000; stroke-width: 0.8"/>
      </g>
     </g>
     <g id="text_3">
      <!-- 40 -->
      <g transform="translate(412.213463 93.735312) scale(0.1 -0.1)">
       <defs>
        <path id="DejaVuSans-34" d="M 2419 4116 
L 825 1625 
L 2419 1625 
L 2419 4116 
z
M 2253 4666 
L 3047 4666 
L 3047 1625 
L 3713 1625 
L 3713 1100 
L 3047 1100 
L 3047 0 
L 2419 0 
L 2419 1100 
L 313 1100 
L 313 1709 
L 2253 4666 
z
" transform="scale(0.015625)"/>
       </defs>
       <use xlink:href="#DejaVuSans-34"/>
       <use xlink:href="#DejaVuSans-30" transform="translate(63.623047 0)"/>
      </g>
     </g>
    </g>
    <g id="xtick_4">
     <g id="line2d_4">
      <g>
       <use xlink:href="#m44e9584c88" x="552.263163" y="79.136875" style="stroke: #000000; stroke-width: 0.8"/>
      </g>
     </g>
     <g id="text_4">
      <!-- 60 -->
      <g transform="translate(545.900663 93.735312) scale(0.1 -0.1)">
       <defs>
        <path id="DejaVuSans-36" d="M 2113 2584 
Q 1688 2584 1439 2293 
Q 1191 2003 1191 1497 
Q 1191 994 1439 701 
Q 1688 409 2113 409 
Q 2538 409 2786 701 
Q 3034 994 3034 1497 
Q 3034 2003 2786 2293 
Q 2538 2584 2113 2584 
z
M 3366 4563 
L 3366 3988 
Q 3128 4100 2886 4159 
Q 2644 4219 2406 4219 
Q 1781 4219 1451 3797 
Q 1122 3375 1075 2522 
Q 1259 2794 1537 2939 
Q 1816 3084 2150 3084 
Q 2853 3084 3261 2657 
Q 3669 2231 3669 1497 
Q 3669 778 3244 343 
Q 2819 -91 2113 -91 
Q 1303 -91 875 529 
Q 447 1150 447 2328 
Q 447 3434 972 4092 
Q 1497 4750 2381 4750 
Q 2619 4750 2861 4703 
Q 3103 4656 3366 4563 
z
" transform="scale(0.015625)"/>
       </defs>
       <use xlink:href="#DejaVuSans-36"/>
       <use xlink:href="#DejaVuSans-30" transform="translate(63.623047 0)"/>
      </g>
     </g>
    </g>
    <g id="xtick_5">
     <g id="line2d_5">
      <g>
       <use xlink:href="#m44e9584c88" x="685.950363" y="79.136875" style="stroke: #000000; stroke-width: 0.8"/>
      </g>
     </g>
     <g id="text_5">
      <!-- 80 -->
      <g transform="translate(679.587863 93.735312) scale(0.1 -0.1)">
       <defs>
        <path id="DejaVuSans-38" d="M 2034 2216 
Q 1584 2216 1326 1975 
Q 1069 1734 1069 1313 
Q 1069 891 1326 650 
Q 1584 409 2034 409 
Q 2484 409 2743 651 
Q 3003 894 3003 1313 
Q 3003 1734 2745 1975 
Q 2488 2216 2034 2216 
z
M 1403 2484 
Q 997 2584 770 2862 
Q 544 3141 544 3541 
Q 544 4100 942 4425 
Q 1341 4750 2034 4750 
Q 2731 4750 3128 4425 
Q 3525 4100 3525 3541 
Q 3525 3141 3298 2862 
Q 3072 2584 2669 2484 
Q 3125 2378 3379 2068 
Q 3634 1759 3634 1313 
Q 3634 634 3220 271 
Q 2806 -91 2034 -91 
Q 1263 -91 848 271 
Q 434 634 434 1313 
Q 434 1759 690 2068 
Q 947 2378 1403 2484 
z
M 1172 3481 
Q 1172 3119 1398 2916 
Q 1625 2713 2034 2713 
Q 2441 2713 2670 2916 
Q 2900 3119 2900 3481 
Q 2900 3844 2670 4047 
Q 2441 4250 2034 4250 
Q 1625 4250 1398 4047 
Q 1172 3844 1172 3481 
z
" transform="scale(0.015625)"/>
       </defs>
       <use xlink:href="#DejaVuSans-38"/>
       <use xlink:href="#DejaVuSans-30" transform="translate(63.623047 0)"/>
      </g>
     </g>
    </g>
    <g id="xtick_6">
     <g id="line2d_6">
      <g>
       <use xlink:href="#m44e9584c88" x="819.637563" y="79.136875" style="stroke: #000000; stroke-width: 0.8"/>
      </g>
     </g>
     <g id="text_6">
      <!-- 100 -->
      <g transform="translate(810.093813 93.735312) scale(0.1 -0.1)">
       <defs>
        <path id="DejaVuSans-31" d="M 794 531 
L 1825 531 
L 1825 4091 
L 703 3866 
L 703 4441 
L 1819 4666 
L 2450 4666 
L 2450 531 
L 3481 531 
L 3481 0 
L 794 0 
L 794 531 
z
" transform="scale(0.015625)"/>
       </defs>
       <use xlink:href="#DejaVuSans-31"/>
       <use xlink:href="#DejaVuSans-30" transform="translate(63.623047 0)"/>
       <use xlink:href="#DejaVuSans-30" transform="translate(127.246094 0)"/>
      </g>
     </g>
    </g>
    <g id="text_7">
     <!-- Relative abundance (%) -->
     <g transform="translate(425.616438 107.413437) scale(0.1 -0.1)">
      <defs>
       <path id="DejaVuSans-52" d="M 2841 2188 
Q 3044 2119 3236 1894 
Q 3428 1669 3622 1275 
L 4263 0 
L 3584 0 
L 2988 1197 
Q 2756 1666 2539 1819 
Q 2322 1972 1947 1972 
L 1259 1972 
L 1259 0 
L 628 0 
L 628 4666 
L 2053 4666 
Q 2853 4666 3247 4331 
Q 3641 3997 3641 3322 
Q 3641 2881 3436 2590 
Q 3231 2300 2841 2188 
z
M 1259 4147 
L 1259 2491 
L 2053 2491 
Q 2509 2491 2742 2702 
Q 2975 2913 2975 3322 
Q 2975 3731 2742 3939 
Q 2509 4147 2053 4147 
L 1259 4147 
z
" transform="scale(0.015625)"/>
       <path id="DejaVuSans-65" d="M 3597 1894 
L 3597 1613 
L 953 1613 
Q 991 1019 1311 708 
Q 1631 397 2203 397 
Q 2534 397 2845 478 
Q 3156 559 3463 722 
L 3463 178 
Q 3153 47 2828 -22 
Q 2503 -91 2169 -91 
Q 1331 -91 842 396 
Q 353 884 353 1716 
Q 353 2575 817 3079 
Q 1281 3584 2069 3584 
Q 2775 3584 3186 3129 
Q 3597 2675 3597 1894 
z
M 3022 2063 
Q 3016 2534 2758 2815 
Q 2500 3097 2075 3097 
Q 1594 3097 1305 2825 
Q 1016 2553 972 2059 
L 3022 2063 
z
" transform="scale(0.015625)"/>
       <path id="DejaVuSans-6c" d="M 603 4863 
L 1178 4863 
L 1178 0 
L 603 0 
L 603 4863 
z
" transform="scale(0.015625)"/>
       <path id="DejaVuSans-61" d="M 2194 1759 
Q 1497 1759 1228 1600 
Q 959 1441 959 1056 
Q 959 750 1161 570 
Q 1363 391 1709 391 
Q 2188 391 2477 730 
Q 2766 1069 2766 1631 
L 2766 1759 
L 2194 1759 
z
M 3341 1997 
L 3341 0 
L 2766 0 
L 2766 531 
Q 2569 213 2275 61 
Q 1981 -91 1556 -91 
Q 1019 -91 701 211 
Q 384 513 384 1019 
Q 384 1609 779 1909 
Q 1175 2209 1959 2209 
L 2766 2209 
L 2766 2266 
Q 2766 2663 2505 2880 
Q 2244 3097 1772 3097 
Q 1472 3097 1187 3025 
Q 903 2953 641 2809 
L 641 3341 
Q 956 3463 1253 3523 
Q 1550 3584 1831 3584 
Q 2591 3584 2966 3190 
Q 3341 2797 3341 1997 
z
" transform="scale(0.015625)"/>
       <path id="DejaVuSans-74" d="M 1172 4494 
L 1172 3500 
L 2356 3500 
L 2356 3053 
L 1172 3053 
L 1172 1153 
Q 1172 725 1289 603 
Q 1406 481 1766 481 
L 2356 481 
L 2356 0 
L 1766 0 
Q 1100 0 847 248 
Q 594 497 594 1153 
L 594 3053 
L 172 3053 
L 172 3500 
L 594 3500 
L 594 4494 
L 1172 4494 
z
" transform="scale(0.015625)"/>
       <path id="DejaVuSans-69" d="M 603 3500 
L 1178 3500 
L 1178 0 
L 603 0 
L 603 3500 
z
M 603 4863 
L 1178 4863 
L 1178 4134 
L 603 4134 
L 603 4863 
z
" transform="scale(0.015625)"/>
       <path id="DejaVuSans-76" d="M 191 3500 
L 800 3500 
L 1894 563 
L 2988 3500 
L 3597 3500 
L 2284 0 
L 1503 0 
L 191 3500 
z
" transform="scale(0.015625)"/>
       <path id="DejaVuSans-20" transform="scale(0.015625)"/>
       <path id="DejaVuSans-62" d="M 3116 1747 
Q 3116 2381 2855 2742 
Q 2594 3103 2138 3103 
Q 1681 3103 1420 2742 
Q 1159 2381 1159 1747 
Q 1159 1113 1420 752 
Q 1681 391 2138 391 
Q 2594 391 2855 752 
Q 3116 1113 3116 1747 
z
M 1159 2969 
Q 1341 3281 1617 3432 
Q 1894 3584 2278 3584 
Q 2916 3584 3314 3078 
Q 3713 2572 3713 1747 
Q 3713 922 3314 415 
Q 2916 -91 2278 -91 
Q 1894 -91 1617 61 
Q 1341 213 1159 525 
L 1159 0 
L 581 0 
L 581 4863 
L 1159 4863 
L 1159 2969 
z
" transform="scale(0.015625)"/>
       <path id="DejaVuSans-75" d="M 544 1381 
L 544 3500 
L 1119 3500 
L 1119 1403 
Q 1119 906 1312 657 
Q 1506 409 1894 409 
Q 2359 409 2629 706 
Q 2900 1003 2900 1516 
L 2900 3500 
L 3475 3500 
L 3475 0 
L 2900 0 
L 2900 538 
Q 2691 219 2414 64 
Q 2138 -91 1772 -91 
Q 1169 -91 856 284 
Q 544 659 544 1381 
z
M 1991 3584 
L 1991 3584 
z
" transform="scale(0.015625)"/>
       <path id="DejaVuSans-6e" d="M 3513 2113 
L 3513 0 
L 2938 0 
L 2938 2094 
Q 2938 2591 2744 2837 
Q 2550 3084 2163 3084 
Q 1697 3084 1428 2787 
Q 1159 2491 1159 1978 
L 1159 0 
L 581 0 
L 581 3500 
L 1159 3500 
L 1159 2956 
Q 1366 3272 1645 3428 
Q 1925 3584 2291 3584 
Q 2894 3584 3203 3211 
Q 3513 2838 3513 2113 
z
" transform="scale(0.015625)"/>
       <path id="DejaVuSans-64" d="M 2906 2969 
L 2906 4863 
L 3481 4863 
L 3481 0 
L 2906 0 
L 2906 525 
Q 2725 213 2448 61 
Q 2172 -91 1784 -91 
Q 1150 -91 751 415 
Q 353 922 353 1747 
Q 353 2572 751 3078 
Q 1150 3584 1784 3584 
Q 2172 3584 2448 3432 
Q 2725 3281 2906 2969 
z
M 947 1747 
Q 947 1113 1208 752 
Q 1469 391 1925 391 
Q 2381 391 2643 752 
Q 2906 1113 2906 1747 
Q 2906 2381 2643 2742 
Q 2381 3103 1925 3103 
Q 1469 3103 1208 2742 
Q 947 2381 947 1747 
z
" transform="scale(0.015625)"/>
       <path id="DejaVuSans-63" d="M 3122 3366 
L 3122 2828 
Q 2878 2963 2633 3030 
Q 2388 3097 2138 3097 
Q 1578 3097 1268 2742 
Q 959 2388 959 1747 
Q 959 1106 1268 751 
Q 1578 397 2138 397 
Q 2388 397 2633 464 
Q 2878 531 3122 666 
L 3122 134 
Q 2881 22 2623 -34 
Q 2366 -91 2075 -91 
Q 1284 -91 818 406 
Q 353 903 353 1747 
Q 353 2603 823 3093 
Q 1294 3584 2113 3584 
Q 2378 3584 2631 3529 
Q 2884 3475 3122 3366 
z
" transform="scale(0.015625)"/>
       <path id="DejaVuSans-28" d="M 1984 4856 
Q 1566 4138 1362 3434 
Q 1159 2731 1159 2009 
Q 1159 1288 1364 580 
Q 1569 -128 1984 -844 
L 1484 -844 
Q 1016 -109 783 600 
Q 550 1309 550 2009 
Q 550 2706 781 3412 
Q 1013 4119 1484 4856 
L 1984 4856 
z
" transform="scale(0.015625)"/>
       <path id="DejaVuSans-25" d="M 4653 2053 
Q 4381 2053 4226 1822 
Q 4072 1591 4072 1178 
Q 4072 772 4226 539 
Q 4381 306 4653 306 
Q 4919 306 5073 539 
Q 5228 772 5228 1178 
Q 5228 1588 5073 1820 
Q 4919 2053 4653 2053 
z
M 4653 2450 
Q 5147 2450 5437 2106 
Q 5728 1763 5728 1178 
Q 5728 594 5436 251 
Q 5144 -91 4653 -91 
Q 4153 -91 3862 251 
Q 3572 594 3572 1178 
Q 3572 1766 3864 2108 
Q 4156 2450 4653 2450 
z
M 1428 4353 
Q 1159 4353 1004 4120 
Q 850 3888 850 3481 
Q 850 3069 1003 2837 
Q 1156 2606 1428 2606 
Q 1700 2606 1854 2837 
Q 2009 3069 2009 3481 
Q 2009 3884 1853 4118 
Q 1697 4353 1428 4353 
z
M 4250 4750 
L 4750 4750 
L 1831 -91 
L 1331 -91 
L 4250 4750 
z
M 1428 4750 
Q 1922 4750 2215 4408 
Q 2509 4066 2509 3481 
Q 2509 2891 2217 2550 
Q 1925 2209 1428 2209 
Q 931 2209 642 2551 
Q 353 2894 353 3481 
Q 353 4063 643 4406 
Q 934 4750 1428 4750 
z
" transform="scale(0.015625)"/>
       <path id="DejaVuSans-29" d="M 513 4856 
L 1013 4856 
Q 1481 4119 1714 3412 
Q 1947 2706 1947 2009 
Q 1947 1309 1714 600 
Q 1481 -109 1013 -844 
L 513 -844 
Q 928 -128 1133 580 
Q 1338 1288 1338 2009 
Q 1338 2731 1133 3434 
Q 928 4138 513 4856 
z
" transform="scale(0.015625)"/>
      </defs>
      <use xlink:href="#DejaVuSans-52"/>
      <use xlink:href="#DejaVuSans-65" transform="translate(64.982422 0)"/>
      <use xlink:href="#DejaVuSans-6c" transform="translate(126.505859 0)"/>
      <use xlink:href="#DejaVuSans-61" transform="translate(154.289062 0)"/>
      <use xlink:href="#DejaVuSans-74" transform="translate(215.568359 0)"/>
      <use xlink:href="#DejaVuSans-69" transform="translate(254.777344 0)"/>
      <use xlink:href="#DejaVuSans-76" transform="translate(282.560547 0)"/>
      <use xlink:href="#DejaVuSans-65" transform="translate(341.740234 0)"/>
      <use xlink:href="#DejaVuSans-20" transform="translate(403.263672 0)"/>
      <use xlink:href="#DejaVuSans-61" transform="translate(435.050781 0)"/>
      <use xlink:href="#DejaVuSans-62" transform="translate(496.330078 0)"/>
      <use xlink:href="#DejaVuSans-75" transform="translate(559.806641 0)"/>
      <use xlink:href="#DejaVuSans-6e" transform="translate(623.185547 0)"/>
      <use xlink:href="#DejaVuSans-64" transform="translate(686.564453 0)"/>
      <use xlink:href="#DejaVuSans-61" transform="translate(750.041016 0)"/>
      <use xlink:href="#DejaVuSans-6e" transform="translate(811.320312 0)"/>
      <use xlink:href="#DejaVuSans-63" transform="translate(874.699219 0)"/>
      <use xlink:href="#DejaVuSans-65" transform="translate(929.679688 0)"/>
      <use xlink:href="#DejaVuSans-20" transform="translate(991.203125 0)"/>
      <use xlink:href="#DejaVuSans-28" transform="translate(1022.990234 0)"/>
      <use xlink:href="#DejaVuSans-25" transform="translate(1062.003906 0)"/>
      <use xlink:href="#DejaVuSans-29" transform="translate(1157.023438 0)"/>
     </g>
    </g>
   </g>
   <g id="matplotlib.axis_2">
    <g id="ytick_1">
     <g id="line2d_7">
      <defs>
       <path id="ma0887562d1" d="M 0 0 
L -3.5 0 
" style="stroke: #000000; stroke-width: 0.8"/>
      </defs>
      <g>
       <use xlink:href="#ma0887562d1" x="151.201562" y="69.175146" style="stroke: #000000; stroke-width: 0.8"/>
      </g>
     </g>
     <g id="text_8">
      <!-- HorseThief_in_cultivation -->
      <g transform="translate(18.5625 72.974365) scale(0.1 -0.1)">
       <defs>
        <path id="DejaVuSans-48" d="M 628 4666 
L 1259 4666 
L 1259 2753 
L 3553 2753 
L 3553 4666 
L 4184 4666 
L 4184 0 
L 3553 0 
L 3553 2222 
L 1259 2222 
L 1259 0 
L 628 0 
L 628 4666 
z
" transform="scale(0.015625)"/>
        <path id="DejaVuSans-6f" d="M 1959 3097 
Q 1497 3097 1228 2736 
Q 959 2375 959 1747 
Q 959 1119 1226 758 
Q 1494 397 1959 397 
Q 2419 397 2687 759 
Q 2956 1122 2956 1747 
Q 2956 2369 2687 2733 
Q 2419 3097 1959 3097 
z
M 1959 3584 
Q 2709 3584 3137 3096 
Q 3566 2609 3566 1747 
Q 3566 888 3137 398 
Q 2709 -91 1959 -91 
Q 1206 -91 779 398 
Q 353 888 353 1747 
Q 353 2609 779 3096 
Q 1206 3584 1959 3584 
z
" transform="scale(0.015625)"/>
        <path id="DejaVuSans-72" d="M 2631 2963 
Q 2534 3019 2420 3045 
Q 2306 3072 2169 3072 
Q 1681 3072 1420 2755 
Q 1159 2438 1159 1844 
L 1159 0 
L 581 0 
L 581 3500 
L 1159 3500 
L 1159 2956 
Q 1341 3275 1631 3429 
Q 1922 3584 2338 3584 
Q 2397 3584 2469 3576 
Q 2541 3569 2628 3553 
L 2631 2963 
z
" transform="scale(0.015625)"/>
        <path id="DejaVuSans-73" d="M 2834 3397 
L 2834 2853 
Q 2591 2978 2328 3040 
Q 2066 3103 1784 3103 
Q 1356 3103 1142 2972 
Q 928 2841 928 2578 
Q 928 2378 1081 2264 
Q 1234 2150 1697 2047 
L 1894 2003 
Q 2506 1872 2764 1633 
Q 3022 1394 3022 966 
Q 3022 478 2636 193 
Q 2250 -91 1575 -91 
Q 1294 -91 989 -36 
Q 684 19 347 128 
L 347 722 
Q 666 556 975 473 
Q 1284 391 1588 391 
Q 1994 391 2212 530 
Q 2431 669 2431 922 
Q 2431 1156 2273 1281 
Q 2116 1406 1581 1522 
L 1381 1569 
Q 847 1681 609 1914 
Q 372 2147 372 2553 
Q 372 3047 722 3315 
Q 1072 3584 1716 3584 
Q 2034 3584 2315 3537 
Q 2597 3491 2834 3397 
z
" transform="scale(0.015625)"/>
        <path id="DejaVuSans-54" d="M -19 4666 
L 3928 4666 
L 3928 4134 
L 2272 4134 
L 2272 0 
L 1638 0 
L 1638 4134 
L -19 4134 
L -19 4666 
z
" transform="scale(0.015625)"/>
        <path id="DejaVuSans-68" d="M 3513 2113 
L 3513 0 
L 2938 0 
L 2938 2094 
Q 2938 2591 2744 2837 
Q 2550 3084 2163 3084 
Q 1697 3084 1428 2787 
Q 1159 2491 1159 1978 
L 1159 0 
L 581 0 
L 581 4863 
L 1159 4863 
L 1159 2956 
Q 1366 3272 1645 3428 
Q 1925 3584 2291 3584 
Q 2894 3584 3203 3211 
Q 3513 2838 3513 2113 
z
" transform="scale(0.015625)"/>
        <path id="DejaVuSans-66" d="M 2375 4863 
L 2375 4384 
L 1825 4384 
Q 1516 4384 1395 4259 
Q 1275 4134 1275 3809 
L 1275 3500 
L 2222 3500 
L 2222 3053 
L 1275 3053 
L 1275 0 
L 697 0 
L 697 3053 
L 147 3053 
L 147 3500 
L 697 3500 
L 697 3744 
Q 697 4328 969 4595 
Q 1241 4863 1831 4863 
L 2375 4863 
z
" transform="scale(0.015625)"/>
        <path id="DejaVuSans-5f" d="M 3263 -1063 
L 3263 -1509 
L -63 -1509 
L -63 -1063 
L 3263 -1063 
z
" transform="scale(0.015625)"/>
       </defs>
       <use xlink:href="#DejaVuSans-48"/>
       <use xlink:href="#DejaVuSans-6f" transform="translate(75.195312 0)"/>
       <use xlink:href="#DejaVuSans-72" transform="translate(136.376953 0)"/>
       <use xlink:href="#DejaVuSans-73" transform="translate(177.490234 0)"/>
       <use xlink:href="#DejaVuSans-65" transform="translate(229.589844 0)"/>
       <use xlink:href="#DejaVuSans-54" transform="translate(291.113281 0)"/>
       <use xlink:href="#DejaVuSans-68" transform="translate(352.197266 0)"/>
       <use xlink:href="#DejaVuSans-69" transform="translate(415.576172 0)"/>
       <use xlink:href="#DejaVuSans-65" transform="translate(443.359375 0)"/>
       <use xlink:href="#DejaVuSans-66" transform="translate(504.882812 0)"/>
       <use xlink:href="#DejaVuSans-5f" transform="translate(540.087891 0)"/>
       <use xlink:href="#DejaVuSans-69" transform="translate(590.087891 0)"/>
       <use xlink:href="#DejaVuSans-6e" transform="translate(617.871094 0)"/>
       <use xlink:href="#DejaVuSans-5f" transform="translate(681.25 0)"/>
       <use xlink:href="#DejaVuSans-63" transform="translate(731.25 0)"/>
       <use xlink:href="#DejaVuSans-75" transform="translate(786.230469 0)"/>
       <use xlink:href="#DejaVuSans-6c" transform="translate(849.609375 0)"/>
       <use xlink:href="#DejaVuSans-74" transform="translate(877.392578 0)"/>
       <use xlink:href="#DejaVuSans-69" transform="translate(916.601562 0)"/>
       <use xlink:href="#DejaVuSans-76" transform="translate(944.384766 0)"/>
       <use xlink:href="#DejaVuSans-61" transform="translate(1003.564453 0)"/>
       <use xlink:href="#DejaVuSans-74" transform="translate(1064.84375 0)"/>
       <use xlink:href="#DejaVuSans-69" transform="translate(1104.052734 0)"/>
       <use xlink:href="#DejaVuSans-6f" transform="translate(1131.835938 0)"/>
       <use xlink:href="#DejaVuSans-6e" transform="translate(1193.017578 0)"/>
      </g>
     </g>
    </g>
    <g id="ytick_2">
     <g id="line2d_8">
      <g>
       <use xlink:href="#ma0887562d1" x="151.201562" y="50.7275" style="stroke: #000000; stroke-width: 0.8"/>
      </g>
     </g>
     <g id="text_9">
      <!-- HorseThief_lake_water_2 -->
      <g transform="translate(19.851562 54.526719) scale(0.1 -0.1)">
       <defs>
        <path id="DejaVuSans-6b" d="M 581 4863 
L 1159 4863 
L 1159 1991 
L 2875 3500 
L 3609 3500 
L 1753 1863 
L 3688 0 
L 2938 0 
L 1159 1709 
L 1159 0 
L 581 0 
L 581 4863 
z
" transform="scale(0.015625)"/>
        <path id="DejaVuSans-77" d="M 269 3500 
L 844 3500 
L 1563 769 
L 2278 3500 
L 2956 3500 
L 3675 769 
L 4391 3500 
L 4966 3500 
L 4050 0 
L 3372 0 
L 2619 2869 
L 1863 0 
L 1184 0 
L 269 3500 
z
" transform="scale(0.015625)"/>
       </defs>
       <use xlink:href="#DejaVuSans-48"/>
       <use xlink:href="#DejaVuSans-6f" transform="translate(75.195312 0)"/>
       <use xlink:href="#DejaVuSans-72" transform="translate(136.376953 0)"/>
       <use xlink:href="#DejaVuSans-73" transform="translate(177.490234 0)"/>
       <use xlink:href="#DejaVuSans-65" transform="translate(229.589844 0)"/>
       <use xlink:href="#DejaVuSans-54" transform="translate(291.113281 0)"/>
       <use xlink:href="#DejaVuSans-68" transform="translate(352.197266 0)"/>
       <use xlink:href="#DejaVuSans-69" transform="translate(415.576172 0)"/>
       <use xlink:href="#DejaVuSans-65" transform="translate(443.359375 0)"/>
       <use xlink:href="#DejaVuSans-66" transform="translate(504.882812 0)"/>
       <use xlink:href="#DejaVuSans-5f" transform="translate(540.087891 0)"/>
       <use xlink:href="#DejaVuSans-6c" transform="translate(590.087891 0)"/>
       <use xlink:href="#DejaVuSans-61" transform="translate(617.871094 0)"/>
       <use xlink:href="#DejaVuSans-6b" transform="translate(679.150391 0)"/>
       <use xlink:href="#DejaVuSans-65" transform="translate(733.435547 0)"/>
       <use xlink:href="#DejaVuSans-5f" transform="translate(794.958984 0)"/>
       <use xlink:href="#DejaVuSans-77" transform="translate(844.958984 0)"/>
       <use xlink:href="#DejaVuSans-61" transform="translate(926.746094 0)"/>
       <use xlink:href="#DejaVuSans-74" transform="translate(988.025391 0)"/>
       <use xlink:href="#DejaVuSans-65" transform="translate(1027.234375 0)"/>
       <use xlink:href="#DejaVuSans-72" transform="translate(1088.757812 0)"/>
       <use xlink:href="#DejaVuSans-5f" transform="translate(1129.871094 0)"/>
       <use xlink:href="#DejaVuSans-32" transform="translate(1179.871094 0)"/>
      </g>
     </g>
    </g>
    <g id="ytick_3">
     <g id="line2d_9">
      <g>
       <use xlink:href="#ma0887562d1" x="151.201562" y="32.279854" style="stroke: #000000; stroke-width: 0.8"/>
      </g>
     </g>
     <g id="text_10">
      <!-- HorseThief_in_cultivation_2 -->
      <g transform="translate(7.2 36.079073) scale(0.1 -0.1)">
       <use xlink:href="#DejaVuSans-48"/>
       <use xlink:href="#DejaVuSans-6f" transform="translate(75.195312 0)"/>
       <use xlink:href="#DejaVuSans-72" transform="translate(136.376953 0)"/>
       <use xlink:href="#DejaVuSans-73" transform="translate(177.490234 0)"/>
       <use xlink:href="#DejaVuSans-65" transform="translate(229.589844 0)"/>
       <use xlink:href="#DejaVuSans-54" transform="translate(291.113281 0)"/>
       <use xlink:href="#DejaVuSans-68" transform="translate(352.197266 0)"/>
       <use xlink:href="#DejaVuSans-69" transform="translate(415.576172 0)"/>
       <use xlink:href="#DejaVuSans-65" transform="translate(443.359375 0)"/>
       <use xlink:href="#DejaVuSans-66" transform="translate(504.882812 0)"/>
       <use xlink:href="#DejaVuSans-5f" transform="translate(540.087891 0)"/>
       <use xlink:href="#DejaVuSans-69" transform="translate(590.087891 0)"/>
       <use xlink:href="#DejaVuSans-6e" transform="translate(617.871094 0)"/>
       <use xlink:href="#DejaVuSans-5f" transform="translate(681.25 0)"/>
       <use xlink:href="#DejaVuSans-63" transform="translate(731.25 0)"/>
       <use xlink:href="#DejaVuSans-75" transform="translate(786.230469 0)"/>
       <use xlink:href="#DejaVuSans-6c" transform="translate(849.609375 0)"/>
       <use xlink:href="#DejaVuSans-74" transform="translate(877.392578 0)"/>
       <use xlink:href="#DejaVuSans-69" transform="translate(916.601562 0)"/>
       <use xlink:href="#DejaVuSans-76" transform="translate(944.384766 0)"/>
       <use xlink:href="#DejaVuSans-61" transform="translate(1003.564453 0)"/>
       <use xlink:href="#DejaVuSans-74" transform="translate(1064.84375 0)"/>
       <use xlink:href="#DejaVuSans-69" transform="translate(1104.052734 0)"/>
       <use xlink:href="#DejaVuSans-6f" transform="translate(1131.835938 0)"/>
       <use xlink:href="#DejaVuSans-6e" transform="translate(1193.017578 0)"/>
       <use xlink:href="#DejaVuSans-5f" transform="translate(1256.396484 0)"/>
       <use xlink:href="#DejaVuSans-32" transform="translate(1306.396484 0)"/>
      </g>
     </g>
    </g>
   </g>
   <g id="patch_84">
    <path d="M 151.201562 79.136875 
L 151.201562 22.318125 
" style="fill: none; stroke: #000000; stroke-width: 0.8; stroke-linejoin: miter; stroke-linecap: square"/>
   </g>
   <g id="patch_85">
    <path d="M 819.637563 79.136875 
L 819.637563 22.318125 
" style="fill: none; stroke: #000000; stroke-width: 0.8; stroke-linejoin: miter; stroke-linecap: square"/>
   </g>
   <g id="patch_86">
    <path d="M 151.201562 79.136875 
L 819.637563 79.136875 
" style="fill: none; stroke: #000000; stroke-width: 0.8; stroke-linejoin: miter; stroke-linecap: square"/>
   </g>
   <g id="patch_87">
    <path d="M 151.201562 22.318125 
L 819.637563 22.318125 
" style="fill: none; stroke: #000000; stroke-width: 0.8; stroke-linejoin: miter; stroke-linecap: square"/>
   </g>
   <g id="text_11">
    <!-- Family composition (threshold &lt; 1% → Other) -->
    <g transform="translate(348.542688 16.318125) scale(0.12 -0.12)">
     <defs>
      <path id="DejaVuSans-46" d="M 628 4666 
L 3309 4666 
L 3309 4134 
L 1259 4134 
L 1259 2759 
L 3109 2759 
L 3109 2228 
L 1259 2228 
L 1259 0 
L 628 0 
L 628 4666 
z
" transform="scale(0.015625)"/>
      <path id="DejaVuSans-6d" d="M 3328 2828 
Q 3544 3216 3844 3400 
Q 4144 3584 4550 3584 
Q 5097 3584 5394 3201 
Q 5691 2819 5691 2113 
L 5691 0 
L 5113 0 
L 5113 2094 
Q 5113 2597 4934 2840 
Q 4756 3084 4391 3084 
Q 3944 3084 3684 2787 
Q 3425 2491 3425 1978 
L 3425 0 
L 2847 0 
L 2847 2094 
Q 2847 2600 2669 2842 
Q 2491 3084 2119 3084 
Q 1678 3084 1418 2786 
Q 1159 2488 1159 1978 
L 1159 0 
L 581 0 
L 581 3500 
L 1159 3500 
L 1159 2956 
Q 1356 3278 1631 3431 
Q 1906 3584 2284 3584 
Q 2666 3584 2933 3390 
Q 3200 3197 3328 2828 
z
" transform="scale(0.015625)"/>
      <path id="DejaVuSans-79" d="M 2059 -325 
Q 1816 -950 1584 -1140 
Q 1353 -1331 966 -1331 
L 506 -1331 
L 506 -850 
L 844 -850 
Q 1081 -850 1212 -737 
Q 1344 -625 1503 -206 
L 1606 56 
L 191 3500 
L 800 3500 
L 1894 763 
L 2988 3500 
L 3597 3500 
L 2059 -325 
z
" transform="scale(0.015625)"/>
      <path id="DejaVuSans-70" d="M 1159 525 
L 1159 -1331 
L 581 -1331 
L 581 3500 
L 1159 3500 
L 1159 2969 
Q 1341 3281 1617 3432 
Q 1894 3584 2278 3584 
Q 2916 3584 3314 3078 
Q 3713 2572 3713 1747 
Q 3713 922 3314 415 
Q 2916 -91 2278 -91 
Q 1894 -91 1617 61 
Q 1341 213 1159 525 
z
M 3116 1747 
Q 3116 2381 2855 2742 
Q 2594 3103 2138 3103 
Q 1681 3103 1420 2742 
Q 1159 2381 1159 1747 
Q 1159 1113 1420 752 
Q 1681 391 2138 391 
Q 2594 391 2855 752 
Q 3116 1113 3116 1747 
z
" transform="scale(0.015625)"/>
      <path id="DejaVuSans-3c" d="M 4684 3150 
L 1459 2003 
L 4684 863 
L 4684 294 
L 678 1747 
L 678 2266 
L 4684 3719 
L 4684 3150 
z
" transform="scale(0.015625)"/>
      <path id="DejaVuSans-2192" d="M 5050 2147 
L 5050 1866 
L 3822 638 
L 3447 1013 
L 4175 1741 
L 366 1741 
L 366 2272 
L 4175 2272 
L 3447 3000 
L 3822 3375 
L 5050 2147 
z
" transform="scale(0.015625)"/>
      <path id="DejaVuSans-4f" d="M 2522 4238 
Q 1834 4238 1429 3725 
Q 1025 3213 1025 2328 
Q 1025 1447 1429 934 
Q 1834 422 2522 422 
Q 3209 422 3611 934 
Q 4013 1447 4013 2328 
Q 4013 3213 3611 3725 
Q 3209 4238 2522 4238 
z
M 2522 4750 
Q 3503 4750 4090 4092 
Q 4678 3434 4678 2328 
Q 4678 1225 4090 567 
Q 3503 -91 2522 -91 
Q 1538 -91 948 565 
Q 359 1222 359 2328 
Q 359 3434 948 4092 
Q 1538 4750 2522 4750 
z
" transform="scale(0.015625)"/>
     </defs>
     <use xlink:href="#DejaVuSans-46"/>
     <use xlink:href="#DejaVuSans-61" transform="translate(48.394531 0)"/>
     <use xlink:href="#DejaVuSans-6d" transform="translate(109.673828 0)"/>
     <use xlink:href="#DejaVuSans-69" transform="translate(207.085938 0)"/>
     <use xlink:href="#DejaVuSans-6c" transform="translate(234.869141 0)"/>
     <use xlink:href="#DejaVuSans-79" transform="translate(262.652344 0)"/>
     <use xlink:href="#DejaVuSans-20" transform="translate(321.832031 0)"/>
     <use xlink:href="#DejaVuSans-63" transform="translate(353.619141 0)"/>
     <use xlink:href="#DejaVuSans-6f" transform="translate(408.599609 0)"/>
     <use xlink:href="#DejaVuSans-6d" transform="translate(469.78125 0)"/>
     <use xlink:href="#DejaVuSans-70" transform="translate(567.193359 0)"/>
     <use xlink:href="#DejaVuSans-6f" transform="translate(630.669922 0)"/>
     <use xlink:href="#DejaVuSans-73" transform="translate(691.851562 0)"/>
     <use xlink:href="#DejaVuSans-69" transform="translate(743.951172 0)"/>
     <use xlink:href="#DejaVuSans-74" transform="translate(771.734375 0)"/>
     <use xlink:href="#DejaVuSans-69" transform="translate(810.943359 0)"/>
     <use xlink:href="#DejaVuSans-6f" transform="translate(838.726562 0)"/>
     <use xlink:href="#DejaVuSans-6e" transform="translate(899.908203 0)"/>
     <use xlink:href="#DejaVuSans-20" transform="translate(963.287109 0)"/>
     <use xlink:href="#DejaVuSans-28" transform="translate(995.074219 0)"/>
     <use xlink:href="#DejaVuSans-74" transform="translate(1034.087891 0)"/>
     <use xlink:href="#DejaVuSans-68" transform="translate(1073.296875 0)"/>
     <use xlink:href="#DejaVuSans-72" transform="translate(1136.675781 0)"/>
     <use xlink:href="#DejaVuSans-65" transform="translate(1175.539062 0)"/>
     <use xlink:href="#DejaVuSans-73" transform="translate(1237.0625 0)"/>
     <use xlink:href="#DejaVuSans-68" transform="translate(1289.162109 0)"/>
     <use xlink:href="#DejaVuSans-6f" transform="translate(1352.541016 0)"/>
     <use xlink:href="#DejaVuSans-6c" transform="translate(1413.722656 0)"/>
     <use xlink:href="#DejaVuSans-64" transform="translate(1441.505859 0)"/>
     <use xlink:href="#DejaVuSans-20" transform="translate(1504.982422 0)"/>
     <use xlink:href="#DejaVuSans-3c" transform="translate(1536.769531 0)"/>
     <use xlink:href="#DejaVuSans-20" transform="translate(1620.558594 0)"/>
     <use xlink:href="#DejaVuSans-31" transform="translate(1652.345703 0)"/>
     <use xlink:href="#DejaVuSans-25" transform="translate(1715.96875 0)"/>
     <use xlink:href="#DejaVuSans-20" transform="translate(1810.988281 0)"/>
     <use xlink:href="#DejaVuSans-2192" transform="translate(1842.775391 0)"/>
     <use xlink:href="#DejaVuSans-20" transform="translate(1926.564453 0)"/>
     <use xlink:href="#DejaVuSans-4f" transform="translate(1958.351562 0)"/>
     <use xlink:href="#DejaVuSans-74" transform="translate(2037.0625 0)"/>
     <use xlink:href="#DejaVuSans-68" transform="translate(2076.271484 0)"/>
     <use xlink:href="#DejaVuSans-65" transform="translate(2139.650391 0)"/>
     <use xlink:href="#DejaVuSans-72" transform="translate(2201.173828 0)"/>
     <use xlink:href="#DejaVuSans-29" transform="translate(2242.287109 0)"/>
    </g>
   </g>
   <g id="legend_1">
    <g id="patch_88">
     <path d="M 842.006283 38.916562 
L 862.006283 38.916562 
L 862.006283 31.916562 
L 842.006283 31.916562 
z
" style="fill: #1f77b4; stroke: #ffffff; stroke-width: 0.5; stroke-linejoin: miter"/>
    </g>
    <g id="text_12">
     <!-- Limnotrichaceae -->
     <g transform="translate(870.006283 38.916562) scale(0.1 -0.1)">
      <defs>
       <path id="DejaVuSans-4c" d="M 628 4666 
L 1259 4666 
L 1259 531 
L 3531 531 
L 3531 0 
L 628 0 
L 628 4666 
z
" transform="scale(0.015625)"/>
      </defs>
      <use xlink:href="#DejaVuSans-4c"/>
      <use xlink:href="#DejaVuSans-69" transform="translate(55.712891 0)"/>
      <use xlink:href="#DejaVuSans-6d" transform="translate(83.496094 0)"/>
      <use xlink:href="#DejaVuSans-6e" transform="translate(180.908203 0)"/>
      <use xlink:href="#DejaVuSans-6f" transform="translate(244.287109 0)"/>
      <use xlink:href="#DejaVuSans-74" transform="translate(305.46875 0)"/>
      <use xlink:href="#DejaVuSans-72" transform="translate(344.677734 0)"/>
      <use xlink:href="#DejaVuSans-69" transform="translate(385.791016 0)"/>
      <use xlink:href="#DejaVuSans-63" transform="translate(413.574219 0)"/>
      <use xlink:href="#DejaVuSans-68" transform="translate(468.554688 0)"/>
      <use xlink:href="#DejaVuSans-61" transform="translate(531.933594 0)"/>
      <use xlink:href="#DejaVuSans-63" transform="translate(593.212891 0)"/>
      <use xlink:href="#DejaVuSans-65" transform="translate(648.193359 0)"/>
      <use xlink:href="#DejaVuSans-61" transform="translate(709.716797 0)"/>
      <use xlink:href="#DejaVuSans-65" transform="translate(770.996094 0)"/>
     </g>
    </g>
    <g id="patch_89">
     <path d="M 842.006283 53.594688 
L 862.006283 53.594688 
L 862.006283 46.594688 
L 842.006283 46.594688 
z
" style="fill: #aec7e8; stroke: #ffffff; stroke-width: 0.5; stroke-linejoin: miter"/>
    </g>
    <g id="text_13">
     <!-- Comamonadaceae -->
     <g transform="translate(870.006283 53.594688) scale(0.1 -0.1)">
      <defs>
       <path id="DejaVuSans-43" d="M 4122 4306 
L 4122 3641 
Q 3803 3938 3442 4084 
Q 3081 4231 2675 4231 
Q 1875 4231 1450 3742 
Q 1025 3253 1025 2328 
Q 1025 1406 1450 917 
Q 1875 428 2675 428 
Q 3081 428 3442 575 
Q 3803 722 4122 1019 
L 4122 359 
Q 3791 134 3420 21 
Q 3050 -91 2638 -91 
Q 1578 -91 968 557 
Q 359 1206 359 2328 
Q 359 3453 968 4101 
Q 1578 4750 2638 4750 
Q 3056 4750 3426 4639 
Q 3797 4528 4122 4306 
z
" transform="scale(0.015625)"/>
      </defs>
      <use xlink:href="#DejaVuSans-43"/>
      <use xlink:href="#DejaVuSans-6f" transform="translate(69.824219 0)"/>
      <use xlink:href="#DejaVuSans-6d" transform="translate(131.005859 0)"/>
      <use xlink:href="#DejaVuSans-61" transform="translate(228.417969 0)"/>
      <use xlink:href="#DejaVuSans-6d" transform="translate(289.697266 0)"/>
      <use xlink:href="#DejaVuSans-6f" transform="translate(387.109375 0)"/>
      <use xlink:href="#DejaVuSans-6e" transform="translate(448.291016 0)"/>
      <use xlink:href="#DejaVuSans-61" transform="translate(511.669922 0)"/>
      <use xlink:href="#DejaVuSans-64" transform="translate(572.949219 0)"/>
      <use xlink:href="#DejaVuSans-61" transform="translate(636.425781 0)"/>
      <use xlink:href="#DejaVuSans-63" transform="translate(697.705078 0)"/>
      <use xlink:href="#DejaVuSans-65" transform="translate(752.685547 0)"/>
      <use xlink:href="#DejaVuSans-61" transform="translate(814.208984 0)"/>
      <use xlink:href="#DejaVuSans-65" transform="translate(875.488281 0)"/>
     </g>
    </g>
    <g id="patch_90">
     <path d="M 842.006283 68.272813 
L 862.006283 68.272813 
L 862.006283 61.272813 
L 842.006283 61.272813 
z
" style="fill: #ff7f0e; stroke: #ffffff; stroke-width: 0.5; stroke-linejoin: miter"/>
    </g>
    <g id="text_14">
     <!-- Rhodobacteraceae -->
     <g transform="translate(870.006283 68.272813) scale(0.1 -0.1)">
      <use xlink:href="#DejaVuSans-52"/>
      <use xlink:href="#DejaVuSans-68" transform="translate(69.482422 0)"/>
      <use xlink:href="#DejaVuSans-6f" transform="translate(132.861328 0)"/>
      <use xlink:href="#DejaVuSans-64" transform="translate(194.042969 0)"/>
      <use xlink:href="#DejaVuSans-6f" transform="translate(257.519531 0)"/>
      <use xlink:href="#DejaVuSans-62" transform="translate(318.701172 0)"/>
      <use xlink:href="#DejaVuSans-61" transform="translate(382.177734 0)"/>
      <use xlink:href="#DejaVuSans-63" transform="translate(443.457031 0)"/>
      <use xlink:href="#DejaVuSans-74" transform="translate(498.4375 0)"/>
      <use xlink:href="#DejaVuSans-65" transform="translate(537.646484 0)"/>
      <use xlink:href="#DejaVuSans-72" transform="translate(599.169922 0)"/>
      <use xlink:href="#DejaVuSans-61" transform="translate(640.283203 0)"/>
      <use xlink:href="#DejaVuSans-63" transform="translate(701.5625 0)"/>
      <use xlink:href="#DejaVuSans-65" transform="translate(756.542969 0)"/>
      <use xlink:href="#DejaVuSans-61" transform="translate(818.066406 0)"/>
      <use xlink:href="#DejaVuSans-65" transform="translate(879.345703 0)"/>
     </g>
    </g>
    <g id="patch_91">
     <path d="M 842.006283 82.950938 
L 862.006283 82.950938 
L 862.006283 75.950938 
L 842.006283 75.950938 
z
" style="fill: #ffbb78; stroke: #ffffff; stroke-width: 0.5; stroke-linejoin: miter"/>
    </g>
    <g id="text_15">
     <!-- Rhodanobacteraceae -->
     <g transform="translate(870.006283 82.950938) scale(0.1 -0.1)">
      <use xlink:href="#DejaVuSans-52"/>
      <use xlink:href="#DejaVuSans-68" transform="translate(69.482422 0)"/>
      <use xlink:href="#DejaVuSans-6f" transform="translate(132.861328 0)"/>
      <use xlink:href="#DejaVuSans-64" transform="translate(194.042969 0)"/>
      <use xlink:href="#DejaVuSans-61" transform="translate(257.519531 0)"/>
      <use xlink:href="#DejaVuSans-6e" transform="translate(318.798828 0)"/>
      <use xlink:href="#DejaVuSans-6f" transform="translate(382.177734 0)"/>
      <use xlink:href="#DejaVuSans-62" transform="translate(443.359375 0)"/>
      <use xlink:href="#DejaVuSans-61" transform="translate(506.835938 0)"/>
      <use xlink:href="#DejaVuSans-63" transform="translate(568.115234 0)"/>
      <use xlink:href="#DejaVuSans-74" transform="translate(623.095703 0)"/>
      <use xlink:href="#DejaVuSans-65" transform="translate(662.304688 0)"/>
      <use xlink:href="#DejaVuSans-72" transform="translate(723.828125 0)"/>
      <use xlink:href="#DejaVuSans-61" transform="translate(764.941406 0)"/>
      <use xlink:href="#DejaVuSans-63" transform="translate(826.220703 0)"/>
      <use xlink:href="#DejaVuSans-65" transform="translate(881.201172 0)"/>
      <use xlink:href="#DejaVuSans-61" transform="translate(942.724609 0)"/>
      <use xlink:href="#DejaVuSans-65" transform="translate(1004.003906 0)"/>
     </g>
    </g>
    <g id="patch_92">
     <path d="M 842.006283 97.629063 
L 862.006283 97.629063 
L 862.006283 90.629063 
L 842.006283 90.629063 
z
" style="fill: #2ca02c; stroke: #ffffff; stroke-width: 0.5; stroke-linejoin: miter"/>
    </g>
    <g id="text_16">
     <!-- Cyclobacteriaceae -->
     <g transform="translate(870.006283 97.629063) scale(0.1 -0.1)">
      <use xlink:href="#DejaVuSans-43"/>
      <use xlink:href="#DejaVuSans-79" transform="translate(69.824219 0)"/>
      <use xlink:href="#DejaVuSans-63" transform="translate(129.003906 0)"/>
      <use xlink:href="#DejaVuSans-6c" transform="translate(183.984375 0)"/>
      <use xlink:href="#DejaVuSans-6f" transform="translate(211.767578 0)"/>
      <use xlink:href="#DejaVuSans-62" transform="translate(272.949219 0)"/>
      <use xlink:href="#DejaVuSans-61" transform="translate(336.425781 0)"/>
      <use xlink:href="#DejaVuSans-63" transform="translate(397.705078 0)"/>
      <use xlink:href="#DejaVuSans-74" transform="translate(452.685547 0)"/>
      <use xlink:href="#DejaVuSans-65" transform="translate(491.894531 0)"/>
      <use xlink:href="#DejaVuSans-72" transform="translate(553.417969 0)"/>
      <use xlink:href="#DejaVuSans-69" transform="translate(594.53125 0)"/>
      <use xlink:href="#DejaVuSans-61" transform="translate(622.314453 0)"/>
      <use xlink:href="#DejaVuSans-63" transform="translate(683.59375 0)"/>
      <use xlink:href="#DejaVuSans-65" transform="translate(738.574219 0)"/>
      <use xlink:href="#DejaVuSans-61" transform="translate(800.097656 0)"/>
      <use xlink:href="#DejaVuSans-65" transform="translate(861.376953 0)"/>
     </g>
    </g>
    <g id="patch_93">
     <path d="M 842.006283 112.307187 
L 862.006283 112.307187 
L 862.006283 105.307187 
L 842.006283 105.307187 
z
" style="fill: #98df8a; stroke: #ffffff; stroke-width: 0.5; stroke-linejoin: miter"/>
    </g>
    <g id="text_17">
     <!-- Sphingomonadaceae -->
     <g transform="translate(870.006283 112.307187) scale(0.1 -0.1)">
      <defs>
       <path id="DejaVuSans-53" d="M 3425 4513 
L 3425 3897 
Q 3066 4069 2747 4153 
Q 2428 4238 2131 4238 
Q 1616 4238 1336 4038 
Q 1056 3838 1056 3469 
Q 1056 3159 1242 3001 
Q 1428 2844 1947 2747 
L 2328 2669 
Q 3034 2534 3370 2195 
Q 3706 1856 3706 1288 
Q 3706 609 3251 259 
Q 2797 -91 1919 -91 
Q 1588 -91 1214 -16 
Q 841 59 441 206 
L 441 856 
Q 825 641 1194 531 
Q 1563 422 1919 422 
Q 2459 422 2753 634 
Q 3047 847 3047 1241 
Q 3047 1584 2836 1778 
Q 2625 1972 2144 2069 
L 1759 2144 
Q 1053 2284 737 2584 
Q 422 2884 422 3419 
Q 422 4038 858 4394 
Q 1294 4750 2059 4750 
Q 2388 4750 2728 4690 
Q 3069 4631 3425 4513 
z
" transform="scale(0.015625)"/>
       <path id="DejaVuSans-67" d="M 2906 1791 
Q 2906 2416 2648 2759 
Q 2391 3103 1925 3103 
Q 1463 3103 1205 2759 
Q 947 2416 947 1791 
Q 947 1169 1205 825 
Q 1463 481 1925 481 
Q 2391 481 2648 825 
Q 2906 1169 2906 1791 
z
M 3481 434 
Q 3481 -459 3084 -895 
Q 2688 -1331 1869 -1331 
Q 1566 -1331 1297 -1286 
Q 1028 -1241 775 -1147 
L 775 -588 
Q 1028 -725 1275 -790 
Q 1522 -856 1778 -856 
Q 2344 -856 2625 -561 
Q 2906 -266 2906 331 
L 2906 616 
Q 2728 306 2450 153 
Q 2172 0 1784 0 
Q 1141 0 747 490 
Q 353 981 353 1791 
Q 353 2603 747 3093 
Q 1141 3584 1784 3584 
Q 2172 3584 2450 3431 
Q 2728 3278 2906 2969 
L 2906 3500 
L 3481 3500 
L 3481 434 
z
" transform="scale(0.015625)"/>
      </defs>
      <use xlink:href="#DejaVuSans-53"/>
      <use xlink:href="#DejaVuSans-70" transform="translate(63.476562 0)"/>
      <use xlink:href="#DejaVuSans-68" transform="translate(126.953125 0)"/>
      <use xlink:href="#DejaVuSans-69" transform="translate(190.332031 0)"/>
      <use xlink:href="#DejaVuSans-6e" transform="translate(218.115234 0)"/>
      <use xlink:href="#DejaVuSans-67" transform="translate(281.494141 0)"/>
      <use xlink:href="#DejaVuSans-6f" transform="translate(344.970703 0)"/>
      <use xlink:href="#DejaVuSans-6d" transform="translate(406.152344 0)"/>
      <use xlink:href="#DejaVuSans-6f" transform="translate(503.564453 0)"/>
      <use xlink:href="#DejaVuSans-6e" transform="translate(564.746094 0)"/>
      <use xlink:href="#DejaVuSans-61" transform="translate(628.125 0)"/>
      <use xlink:href="#DejaVuSans-64" transform="translate(689.404297 0)"/>
      <use xlink:href="#DejaVuSans-61" transform="translate(752.880859 0)"/>
      <use xlink:href="#DejaVuSans-63" transform="translate(814.160156 0)"/>
      <use xlink:href="#DejaVuSans-65" transform="translate(869.140625 0)"/>
      <use xlink:href="#DejaVuSans-61" transform="translate(930.664062 0)"/>
      <use xlink:href="#DejaVuSans-65" transform="translate(991.943359 0)"/>
     </g>
    </g>
    <g id="patch_94">
     <path d="M 842.006283 126.985313 
L 862.006283 126.985313 
L 862.006283 119.985313 
L 842.006283 119.985313 
z
" style="fill: #d62728; stroke: #ffffff; stroke-width: 0.5; stroke-linejoin: miter"/>
    </g>
    <g id="text_18">
     <!-- Hyphomonadaceae -->
     <g transform="translate(870.006283 126.985313) scale(0.1 -0.1)">
      <use xlink:href="#DejaVuSans-48"/>
      <use xlink:href="#DejaVuSans-79" transform="translate(75.195312 0)"/>
      <use xlink:href="#DejaVuSans-70" transform="translate(134.375 0)"/>
      <use xlink:href="#DejaVuSans-68" transform="translate(197.851562 0)"/>
      <use xlink:href="#DejaVuSans-6f" transform="translate(261.230469 0)"/>
      <use xlink:href="#DejaVuSans-6d" transform="translate(322.412109 0)"/>
      <use xlink:href="#DejaVuSans-6f" transform="translate(419.824219 0)"/>
      <use xlink:href="#DejaVuSans-6e" transform="translate(481.005859 0)"/>
      <use xlink:href="#DejaVuSans-61" transform="translate(544.384766 0)"/>
      <use xlink:href="#DejaVuSans-64" transform="translate(605.664062 0)"/>
      <use xlink:href="#DejaVuSans-61" transform="translate(669.140625 0)"/>
      <use xlink:href="#DejaVuSans-63" transform="translate(730.419922 0)"/>
      <use xlink:href="#DejaVuSans-65" transform="translate(785.400391 0)"/>
      <use xlink:href="#DejaVuSans-61" transform="translate(846.923828 0)"/>
      <use xlink:href="#DejaVuSans-65" transform="translate(908.203125 0)"/>
     </g>
    </g>
    <g id="patch_95">
     <path d="M 842.006283 141.663437 
L 862.006283 141.663437 
L 862.006283 134.663437 
L 842.006283 134.663437 
z
" style="fill: #ff9896; stroke: #ffffff; stroke-width: 0.5; stroke-linejoin: miter"/>
    </g>
    <g id="text_19">
     <!-- Opitutaceae -->
     <g transform="translate(870.006283 141.663437) scale(0.1 -0.1)">
      <use xlink:href="#DejaVuSans-4f"/>
      <use xlink:href="#DejaVuSans-70" transform="translate(78.710938 0)"/>
      <use xlink:href="#DejaVuSans-69" transform="translate(142.1875 0)"/>
      <use xlink:href="#DejaVuSans-74" transform="translate(169.970703 0)"/>
      <use xlink:href="#DejaVuSans-75" transform="translate(209.179688 0)"/>
      <use xlink:href="#DejaVuSans-74" transform="translate(272.558594 0)"/>
      <use xlink:href="#DejaVuSans-61" transform="translate(311.767578 0)"/>
      <use xlink:href="#DejaVuSans-63" transform="translate(373.046875 0)"/>
      <use xlink:href="#DejaVuSans-65" transform="translate(428.027344 0)"/>
      <use xlink:href="#DejaVuSans-61" transform="translate(489.550781 0)"/>
      <use xlink:href="#DejaVuSans-65" transform="translate(550.830078 0)"/>
     </g>
    </g>
    <g id="patch_96">
     <path d="M 842.006283 156.341563 
L 862.006283 156.341563 
L 862.006283 149.341563 
L 842.006283 149.341563 
z
" style="fill: #9467bd; stroke: #ffffff; stroke-width: 0.5; stroke-linejoin: miter"/>
    </g>
    <g id="text_20">
     <!-- Flavobacteriaceae -->
     <g transform="translate(870.006283 156.341563) scale(0.1 -0.1)">
      <use xlink:href="#DejaVuSans-46"/>
      <use xlink:href="#DejaVuSans-6c" transform="translate(57.519531 0)"/>
      <use xlink:href="#DejaVuSans-61" transform="translate(85.302734 0)"/>
      <use xlink:href="#DejaVuSans-76" transform="translate(146.582031 0)"/>
      <use xlink:href="#DejaVuSans-6f" transform="translate(205.761719 0)"/>
      <use xlink:href="#DejaVuSans-62" transform="translate(266.943359 0)"/>
      <use xlink:href="#DejaVuSans-61" transform="translate(330.419922 0)"/>
      <use xlink:href="#DejaVuSans-63" transform="translate(391.699219 0)"/>
      <use xlink:href="#DejaVuSans-74" transform="translate(446.679688 0)"/>
      <use xlink:href="#DejaVuSans-65" transform="translate(485.888672 0)"/>
      <use xlink:href="#DejaVuSans-72" transform="translate(547.412109 0)"/>
      <use xlink:href="#DejaVuSans-69" transform="translate(588.525391 0)"/>
      <use xlink:href="#DejaVuSans-61" transform="translate(616.308594 0)"/>
      <use xlink:href="#DejaVuSans-63" transform="translate(677.587891 0)"/>
      <use xlink:href="#DejaVuSans-65" transform="translate(732.568359 0)"/>
      <use xlink:href="#DejaVuSans-61" transform="translate(794.091797 0)"/>
      <use xlink:href="#DejaVuSans-65" transform="translate(855.371094 0)"/>
     </g>
    </g>
    <g id="patch_97">
     <path d="M 842.006283 171.019687 
L 862.006283 171.019687 
L 862.006283 164.019687 
L 842.006283 164.019687 
z
" style="fill: #c5b0d5; stroke: #ffffff; stroke-width: 0.5; stroke-linejoin: miter"/>
    </g>
    <g id="text_21">
     <!-- Stappiaceae -->
     <g transform="translate(870.006283 171.019687) scale(0.1 -0.1)">
      <use xlink:href="#DejaVuSans-53"/>
      <use xlink:href="#DejaVuSans-74" transform="translate(63.476562 0)"/>
      <use xlink:href="#DejaVuSans-61" transform="translate(102.685547 0)"/>
      <use xlink:href="#DejaVuSans-70" transform="translate(163.964844 0)"/>
      <use xlink:href="#DejaVuSans-70" transform="translate(227.441406 0)"/>
      <use xlink:href="#DejaVuSans-69" transform="translate(290.917969 0)"/>
      <use xlink:href="#DejaVuSans-61" transform="translate(318.701172 0)"/>
      <use xlink:href="#DejaVuSans-63" transform="translate(379.980469 0)"/>
      <use xlink:href="#DejaVuSans-65" transform="translate(434.960938 0)"/>
      <use xlink:href="#DejaVuSans-61" transform="translate(496.484375 0)"/>
      <use xlink:href="#DejaVuSans-65" transform="translate(557.763672 0)"/>
     </g>
    </g>
    <g id="patch_98">
     <path d="M 842.006283 185.697812 
L 862.006283 185.697812 
L 862.006283 178.697812 
L 842.006283 178.697812 
z
" style="fill: #8c564b; stroke: #ffffff; stroke-width: 0.5; stroke-linejoin: miter"/>
    </g>
    <g id="text_22">
     <!-- Xanthomonadaceae -->
     <g transform="translate(870.006283 185.697812) scale(0.1 -0.1)">
      <defs>
       <path id="DejaVuSans-58" d="M 403 4666 
L 1081 4666 
L 2241 2931 
L 3406 4666 
L 4084 4666 
L 2584 2425 
L 4184 0 
L 3506 0 
L 2194 1984 
L 872 0 
L 191 0 
L 1856 2491 
L 403 4666 
z
" transform="scale(0.015625)"/>
      </defs>
      <use xlink:href="#DejaVuSans-58"/>
      <use xlink:href="#DejaVuSans-61" transform="translate(68.505859 0)"/>
      <use xlink:href="#DejaVuSans-6e" transform="translate(129.785156 0)"/>
      <use xlink:href="#DejaVuSans-74" transform="translate(193.164062 0)"/>
      <use xlink:href="#DejaVuSans-68" transform="translate(232.373047 0)"/>
      <use xlink:href="#DejaVuSans-6f" transform="translate(295.751953 0)"/>
      <use xlink:href="#DejaVuSans-6d" transform="translate(356.933594 0)"/>
      <use xlink:href="#DejaVuSans-6f" transform="translate(454.345703 0)"/>
      <use xlink:href="#DejaVuSans-6e" transform="translate(515.527344 0)"/>
      <use xlink:href="#DejaVuSans-61" transform="translate(578.90625 0)"/>
      <use xlink:href="#DejaVuSans-64" transform="translate(640.185547 0)"/>
      <use xlink:href="#DejaVuSans-61" transform="translate(703.662109 0)"/>
      <use xlink:href="#DejaVuSans-63" transform="translate(764.941406 0)"/>
      <use xlink:href="#DejaVuSans-65" transform="translate(819.921875 0)"/>
      <use xlink:href="#DejaVuSans-61" transform="translate(881.445312 0)"/>
      <use xlink:href="#DejaVuSans-65" transform="translate(942.724609 0)"/>
     </g>
    </g>
    <g id="patch_99">
     <path d="M 842.006283 200.375937 
L 862.006283 200.375937 
L 862.006283 193.375937 
L 842.006283 193.375937 
z
" style="fill: #c49c94; stroke: #ffffff; stroke-width: 0.5; stroke-linejoin: miter"/>
    </g>
    <g id="text_23">
     <!-- Caulobacteraceae -->
     <g transform="translate(870.006283 200.375937) scale(0.1 -0.1)">
      <use xlink:href="#DejaVuSans-43"/>
      <use xlink:href="#DejaVuSans-61" transform="translate(69.824219 0)"/>
      <use xlink:href="#DejaVuSans-75" transform="translate(131.103516 0)"/>
      <use xlink:href="#DejaVuSans-6c" transform="translate(194.482422 0)"/>
      <use xlink:href="#DejaVuSans-6f" transform="translate(222.265625 0)"/>
      <use xlink:href="#DejaVuSans-62" transform="translate(283.447266 0)"/>
      <use xlink:href="#DejaVuSans-61" transform="translate(346.923828 0)"/>
      <use xlink:href="#DejaVuSans-63" transform="translate(408.203125 0)"/>
      <use xlink:href="#DejaVuSans-74" transform="translate(463.183594 0)"/>
      <use xlink:href="#DejaVuSans-65" transform="translate(502.392578 0)"/>
      <use xlink:href="#DejaVuSans-72" transform="translate(563.916016 0)"/>
      <use xlink:href="#DejaVuSans-61" transform="translate(605.029297 0)"/>
      <use xlink:href="#DejaVuSans-63" transform="translate(666.308594 0)"/>
      <use xlink:href="#DejaVuSans-65" transform="translate(721.289062 0)"/>
      <use xlink:href="#DejaVuSans-61" transform="translate(782.8125 0)"/>
      <use xlink:href="#DejaVuSans-65" transform="translate(844.091797 0)"/>
     </g>
    </g>
    <g id="patch_100">
     <path d="M 842.006283 215.054062 
L 862.006283 215.054062 
L 862.006283 208.054062 
L 842.006283 208.054062 
z
" style="fill: #e377c2; stroke: #ffffff; stroke-width: 0.5; stroke-linejoin: miter"/>
    </g>
    <g id="text_24">
     <!-- Acetobacteraceae -->
     <g transform="translate(870.006283 215.054062) scale(0.1 -0.1)">
      <defs>
       <path id="DejaVuSans-41" d="M 2188 4044 
L 1331 1722 
L 3047 1722 
L 2188 4044 
z
M 1831 4666 
L 2547 4666 
L 4325 0 
L 3669 0 
L 3244 1197 
L 1141 1197 
L 716 0 
L 50 0 
L 1831 4666 
z
" transform="scale(0.015625)"/>
      </defs>
      <use xlink:href="#DejaVuSans-41"/>
      <use xlink:href="#DejaVuSans-63" transform="translate(66.658203 0)"/>
      <use xlink:href="#DejaVuSans-65" transform="translate(121.638672 0)"/>
      <use xlink:href="#DejaVuSans-74" transform="translate(183.162109 0)"/>
      <use xlink:href="#DejaVuSans-6f" transform="translate(222.371094 0)"/>
      <use xlink:href="#DejaVuSans-62" transform="translate(283.552734 0)"/>
      <use xlink:href="#DejaVuSans-61" transform="translate(347.029297 0)"/>
      <use xlink:href="#DejaVuSans-63" transform="translate(408.308594 0)"/>
      <use xlink:href="#DejaVuSans-74" transform="translate(463.289062 0)"/>
      <use xlink:href="#DejaVuSans-65" transform="translate(502.498047 0)"/>
      <use xlink:href="#DejaVuSans-72" transform="translate(564.021484 0)"/>
      <use xlink:href="#DejaVuSans-61" transform="translate(605.134766 0)"/>
      <use xlink:href="#DejaVuSans-63" transform="translate(666.414062 0)"/>
      <use xlink:href="#DejaVuSans-65" transform="translate(721.394531 0)"/>
      <use xlink:href="#DejaVuSans-61" transform="translate(782.917969 0)"/>
      <use xlink:href="#DejaVuSans-65" transform="translate(844.197266 0)"/>
     </g>
    </g>
    <g id="patch_101">
     <path d="M 842.006283 229.732187 
L 862.006283 229.732187 
L 862.006283 222.732187 
L 842.006283 222.732187 
z
" style="fill: #f7b6d2; stroke: #ffffff; stroke-width: 0.5; stroke-linejoin: miter"/>
    </g>
    <g id="text_25">
     <!-- Rhizobiaceae -->
     <g transform="translate(870.006283 229.732187) scale(0.1 -0.1)">
      <defs>
       <path id="DejaVuSans-7a" d="M 353 3500 
L 3084 3500 
L 3084 2975 
L 922 459 
L 3084 459 
L 3084 0 
L 275 0 
L 275 525 
L 2438 3041 
L 353 3041 
L 353 3500 
z
" transform="scale(0.015625)"/>
      </defs>
      <use xlink:href="#DejaVuSans-52"/>
      <use xlink:href="#DejaVuSans-68" transform="translate(69.482422 0)"/>
      <use xlink:href="#DejaVuSans-69" transform="translate(132.861328 0)"/>
      <use xlink:href="#DejaVuSans-7a" transform="translate(160.644531 0)"/>
      <use xlink:href="#DejaVuSans-6f" transform="translate(213.134766 0)"/>
      <use xlink:href="#DejaVuSans-62" transform="translate(274.316406 0)"/>
      <use xlink:href="#DejaVuSans-69" transform="translate(337.792969 0)"/>
      <use xlink:href="#DejaVuSans-61" transform="translate(365.576172 0)"/>
      <use xlink:href="#DejaVuSans-63" transform="translate(426.855469 0)"/>
      <use xlink:href="#DejaVuSans-65" transform="translate(481.835938 0)"/>
      <use xlink:href="#DejaVuSans-61" transform="translate(543.359375 0)"/>
      <use xlink:href="#DejaVuSans-65" transform="translate(604.638672 0)"/>
     </g>
    </g>
    <g id="patch_102">
     <path d="M 842.006283 244.410312 
L 862.006283 244.410312 
L 862.006283 237.410312 
L 842.006283 237.410312 
z
" style="fill: #7f7f7f; stroke: #ffffff; stroke-width: 0.5; stroke-linejoin: miter"/>
    </g>
    <g id="text_26">
     <!-- NS11-12_marine_group -->
     <g transform="translate(870.006283 244.410312) scale(0.1 -0.1)">
      <defs>
       <path id="DejaVuSans-4e" d="M 628 4666 
L 1478 4666 
L 3547 763 
L 3547 4666 
L 4159 4666 
L 4159 0 
L 3309 0 
L 1241 3903 
L 1241 0 
L 628 0 
L 628 4666 
z
" transform="scale(0.015625)"/>
       <path id="DejaVuSans-2d" d="M 313 2009 
L 1997 2009 
L 1997 1497 
L 313 1497 
L 313 2009 
z
" transform="scale(0.015625)"/>
      </defs>
      <use xlink:href="#DejaVuSans-4e"/>
      <use xlink:href="#DejaVuSans-53" transform="translate(74.804688 0)"/>
      <use xlink:href="#DejaVuSans-31" transform="translate(138.28125 0)"/>
      <use xlink:href="#DejaVuSans-31" transform="translate(201.904297 0)"/>
      <use xlink:href="#DejaVuSans-2d" transform="translate(265.527344 0)"/>
      <use xlink:href="#DejaVuSans-31" transform="translate(301.611328 0)"/>
      <use xlink:href="#DejaVuSans-32" transform="translate(365.234375 0)"/>
      <use xlink:href="#DejaVuSans-5f" transform="translate(428.857422 0)"/>
      <use xlink:href="#DejaVuSans-6d" transform="translate(478.857422 0)"/>
      <use xlink:href="#DejaVuSans-61" transform="translate(576.269531 0)"/>
      <use xlink:href="#DejaVuSans-72" transform="translate(637.548828 0)"/>
      <use xlink:href="#DejaVuSans-69" transform="translate(678.662109 0)"/>
      <use xlink:href="#DejaVuSans-6e" transform="translate(706.445312 0)"/>
      <use xlink:href="#DejaVuSans-65" transform="translate(769.824219 0)"/>
      <use xlink:href="#DejaVuSans-5f" transform="translate(831.347656 0)"/>
      <use xlink:href="#DejaVuSans-67" transform="translate(881.347656 0)"/>
      <use xlink:href="#DejaVuSans-72" transform="translate(944.824219 0)"/>
      <use xlink:href="#DejaVuSans-6f" transform="translate(983.6875 0)"/>
      <use xlink:href="#DejaVuSans-75" transform="translate(1044.869141 0)"/>
      <use xlink:href="#DejaVuSans-70" transform="translate(1108.248047 0)"/>
     </g>
    </g>
    <g id="patch_103">
     <path d="M 842.006283 259.366562 
L 862.006283 259.366562 
L 862.006283 252.366562 
L 842.006283 252.366562 
z
" style="fill: #c7c7c7; stroke: #ffffff; stroke-width: 0.5; stroke-linejoin: miter"/>
    </g>
    <g id="text_27">
     <!-- Kapabacteriales -->
     <g transform="translate(870.006283 259.366562) scale(0.1 -0.1)">
      <defs>
       <path id="DejaVuSans-4b" d="M 628 4666 
L 1259 4666 
L 1259 2694 
L 3353 4666 
L 4166 4666 
L 1850 2491 
L 4331 0 
L 3500 0 
L 1259 2247 
L 1259 0 
L 628 0 
L 628 4666 
z
" transform="scale(0.015625)"/>
      </defs>
      <use xlink:href="#DejaVuSans-4b"/>
      <use xlink:href="#DejaVuSans-61" transform="translate(63.826172 0)"/>
      <use xlink:href="#DejaVuSans-70" transform="translate(125.105469 0)"/>
      <use xlink:href="#DejaVuSans-61" transform="translate(188.582031 0)"/>
      <use xlink:href="#DejaVuSans-62" transform="translate(249.861328 0)"/>
      <use xlink:href="#DejaVuSans-61" transform="translate(313.337891 0)"/>
      <use xlink:href="#DejaVuSans-63" transform="translate(374.617188 0)"/>
      <use xlink:href="#DejaVuSans-74" transform="translate(429.597656 0)"/>
      <use xlink:href="#DejaVuSans-65" transform="translate(468.806641 0)"/>
      <use xlink:href="#DejaVuSans-72" transform="translate(530.330078 0)"/>
      <use xlink:href="#DejaVuSans-69" transform="translate(571.443359 0)"/>
      <use xlink:href="#DejaVuSans-61" transform="translate(599.226562 0)"/>
      <use xlink:href="#DejaVuSans-6c" transform="translate(660.505859 0)"/>
      <use xlink:href="#DejaVuSans-65" transform="translate(688.289062 0)"/>
      <use xlink:href="#DejaVuSans-73" transform="translate(749.8125 0)"/>
     </g>
    </g>
    <g id="patch_104">
     <path d="M 842.006283 274.044687 
L 862.006283 274.044687 
L 862.006283 267.044687 
L 842.006283 267.044687 
z
" style="fill: #bcbd22; stroke: #ffffff; stroke-width: 0.5; stroke-linejoin: miter"/>
    </g>
    <g id="text_28">
     <!-- Alteromonadaceae -->
     <g transform="translate(870.006283 274.044687) scale(0.1 -0.1)">
      <use xlink:href="#DejaVuSans-41"/>
      <use xlink:href="#DejaVuSans-6c" transform="translate(68.408203 0)"/>
      <use xlink:href="#DejaVuSans-74" transform="translate(96.191406 0)"/>
      <use xlink:href="#DejaVuSans-65" transform="translate(135.400391 0)"/>
      <use xlink:href="#DejaVuSans-72" transform="translate(196.923828 0)"/>
      <use xlink:href="#DejaVuSans-6f" transform="translate(235.787109 0)"/>
      <use xlink:href="#DejaVuSans-6d" transform="translate(296.96875 0)"/>
      <use xlink:href="#DejaVuSans-6f" transform="translate(394.380859 0)"/>
      <use xlink:href="#DejaVuSans-6e" transform="translate(455.5625 0)"/>
      <use xlink:href="#DejaVuSans-61" transform="translate(518.941406 0)"/>
      <use xlink:href="#DejaVuSans-64" transform="translate(580.220703 0)"/>
      <use xlink:href="#DejaVuSans-61" transform="translate(643.697266 0)"/>
      <use xlink:href="#DejaVuSans-63" transform="translate(704.976562 0)"/>
      <use xlink:href="#DejaVuSans-65" transform="translate(759.957031 0)"/>
      <use xlink:href="#DejaVuSans-61" transform="translate(821.480469 0)"/>
      <use xlink:href="#DejaVuSans-65" transform="translate(882.759766 0)"/>
     </g>
    </g>
    <g id="patch_105">
     <path d="M 842.006283 288.722812 
L 862.006283 288.722812 
L 862.006283 281.722812 
L 842.006283 281.722812 
z
" style="fill: #dbdb8d; stroke: #ffffff; stroke-width: 0.5; stroke-linejoin: miter"/>
    </g>
    <g id="text_29">
     <!-- Verrucomicrobiaceae -->
     <g transform="translate(870.006283 288.722812) scale(0.1 -0.1)">
      <defs>
       <path id="DejaVuSans-56" d="M 1831 0 
L 50 4666 
L 709 4666 
L 2188 738 
L 3669 4666 
L 4325 4666 
L 2547 0 
L 1831 0 
z
" transform="scale(0.015625)"/>
      </defs>
      <use xlink:href="#DejaVuSans-56"/>
      <use xlink:href="#DejaVuSans-65" transform="translate(60.658203 0)"/>
      <use xlink:href="#DejaVuSans-72" transform="translate(122.181641 0)"/>
      <use xlink:href="#DejaVuSans-72" transform="translate(161.544922 0)"/>
      <use xlink:href="#DejaVuSans-75" transform="translate(202.658203 0)"/>
      <use xlink:href="#DejaVuSans-63" transform="translate(266.037109 0)"/>
      <use xlink:href="#DejaVuSans-6f" transform="translate(321.017578 0)"/>
      <use xlink:href="#DejaVuSans-6d" transform="translate(382.199219 0)"/>
      <use xlink:href="#DejaVuSans-69" transform="translate(479.611328 0)"/>
      <use xlink:href="#DejaVuSans-63" transform="translate(507.394531 0)"/>
      <use xlink:href="#DejaVuSans-72" transform="translate(562.375 0)"/>
      <use xlink:href="#DejaVuSans-6f" transform="translate(601.238281 0)"/>
      <use xlink:href="#DejaVuSans-62" transform="translate(662.419922 0)"/>
      <use xlink:href="#DejaVuSans-69" transform="translate(725.896484 0)"/>
      <use xlink:href="#DejaVuSans-61" transform="translate(753.679688 0)"/>
      <use xlink:href="#DejaVuSans-63" transform="translate(814.958984 0)"/>
      <use xlink:href="#DejaVuSans-65" transform="translate(869.939453 0)"/>
      <use xlink:href="#DejaVuSans-61" transform="translate(931.462891 0)"/>
      <use xlink:href="#DejaVuSans-65" transform="translate(992.742188 0)"/>
     </g>
    </g>
    <g id="patch_106">
     <path d="M 842.006283 303.400937 
L 862.006283 303.400937 
L 862.006283 296.400937 
L 842.006283 296.400937 
z
" style="fill: #17becf; stroke: #ffffff; stroke-width: 0.5; stroke-linejoin: miter"/>
    </g>
    <g id="text_30">
     <!-- Nitrosomonadaceae -->
     <g transform="translate(870.006283 303.400937) scale(0.1 -0.1)">
      <use xlink:href="#DejaVuSans-4e"/>
      <use xlink:href="#DejaVuSans-69" transform="translate(74.804688 0)"/>
      <use xlink:href="#DejaVuSans-74" transform="translate(102.587891 0)"/>
      <use xlink:href="#DejaVuSans-72" transform="translate(141.796875 0)"/>
      <use xlink:href="#DejaVuSans-6f" transform="translate(180.660156 0)"/>
      <use xlink:href="#DejaVuSans-73" transform="translate(241.841797 0)"/>
      <use xlink:href="#DejaVuSans-6f" transform="translate(293.941406 0)"/>
      <use xlink:href="#DejaVuSans-6d" transform="translate(355.123047 0)"/>
      <use xlink:href="#DejaVuSans-6f" transform="translate(452.535156 0)"/>
      <use xlink:href="#DejaVuSans-6e" transform="translate(513.716797 0)"/>
      <use xlink:href="#DejaVuSans-61" transform="translate(577.095703 0)"/>
      <use xlink:href="#DejaVuSans-64" transform="translate(638.375 0)"/>
      <use xlink:href="#DejaVuSans-61" transform="translate(701.851562 0)"/>
      <use xlink:href="#DejaVuSans-63" transform="translate(763.130859 0)"/>
      <use xlink:href="#DejaVuSans-65" transform="translate(818.111328 0)"/>
      <use xlink:href="#DejaVuSans-61" transform="translate(879.634766 0)"/>
      <use xlink:href="#DejaVuSans-65" transform="translate(940.914062 0)"/>
     </g>
    </g>
    <g id="patch_107">
     <path d="M 842.006283 318.079062 
L 862.006283 318.079062 
L 862.006283 311.079062 
L 842.006283 311.079062 
z
" style="fill: #9edae5; stroke: #ffffff; stroke-width: 0.5; stroke-linejoin: miter"/>
    </g>
    <g id="text_31">
     <!-- uncultured -->
     <g transform="translate(870.006283 318.079062) scale(0.1 -0.1)">
      <use xlink:href="#DejaVuSans-75"/>
      <use xlink:href="#DejaVuSans-6e" transform="translate(63.378906 0)"/>
      <use xlink:href="#DejaVuSans-63" transform="translate(126.757812 0)"/>
      <use xlink:href="#DejaVuSans-75" transform="translate(181.738281 0)"/>
      <use xlink:href="#DejaVuSans-6c" transform="translate(245.117188 0)"/>
      <use xlink:href="#DejaVuSans-74" transform="translate(272.900391 0)"/>
      <use xlink:href="#DejaVuSans-75" transform="translate(312.109375 0)"/>
      <use xlink:href="#DejaVuSans-72" transform="translate(375.488281 0)"/>
      <use xlink:href="#DejaVuSans-65" transform="translate(414.351562 0)"/>
      <use xlink:href="#DejaVuSans-64" transform="translate(475.875 0)"/>
     </g>
    </g>
    <g id="patch_108">
     <path d="M 842.006283 332.757187 
L 862.006283 332.757187 
L 862.006283 325.757187 
L 842.006283 325.757187 
z
" style="fill: #1f77b4; stroke: #ffffff; stroke-width: 0.5; stroke-linejoin: miter"/>
    </g>
    <g id="text_32">
     <!-- Microscillaceae -->
     <g transform="translate(870.006283 332.757187) scale(0.1 -0.1)">
      <defs>
       <path id="DejaVuSans-4d" d="M 628 4666 
L 1569 4666 
L 2759 1491 
L 3956 4666 
L 4897 4666 
L 4897 0 
L 4281 0 
L 4281 4097 
L 3078 897 
L 2444 897 
L 1241 4097 
L 1241 0 
L 628 0 
L 628 4666 
z
" transform="scale(0.015625)"/>
      </defs>
      <use xlink:href="#DejaVuSans-4d"/>
      <use xlink:href="#DejaVuSans-69" transform="translate(86.279297 0)"/>
      <use xlink:href="#DejaVuSans-63" transform="translate(114.0625 0)"/>
      <use xlink:href="#DejaVuSans-72" transform="translate(169.042969 0)"/>
      <use xlink:href="#DejaVuSans-6f" transform="translate(207.90625 0)"/>
      <use xlink:href="#DejaVuSans-73" transform="translate(269.087891 0)"/>
      <use xlink:href="#DejaVuSans-63" transform="translate(321.1875 0)"/>
      <use xlink:href="#DejaVuSans-69" transform="translate(376.167969 0)"/>
      <use xlink:href="#DejaVuSans-6c" transform="translate(403.951172 0)"/>
      <use xlink:href="#DejaVuSans-6c" transform="translate(431.734375 0)"/>
      <use xlink:href="#DejaVuSans-61" transform="translate(459.517578 0)"/>
      <use xlink:href="#DejaVuSans-63" transform="translate(520.796875 0)"/>
      <use xlink:href="#DejaVuSans-65" transform="translate(575.777344 0)"/>
      <use xlink:href="#DejaVuSans-61" transform="translate(637.300781 0)"/>
      <use xlink:href="#DejaVuSans-65" transform="translate(698.580078 0)"/>
     </g>
    </g>
    <g id="patch_109">
     <path d="M 842.006283 347.435313 
L 862.006283 347.435313 
L 862.006283 340.435313 
L 842.006283 340.435313 
z
" style="fill: #aec7e8; stroke: #ffffff; stroke-width: 0.5; stroke-linejoin: miter"/>
    </g>
    <g id="text_33">
     <!-- Spirosomaceae -->
     <g transform="translate(870.006283 347.435313) scale(0.1 -0.1)">
      <use xlink:href="#DejaVuSans-53"/>
      <use xlink:href="#DejaVuSans-70" transform="translate(63.476562 0)"/>
      <use xlink:href="#DejaVuSans-69" transform="translate(126.953125 0)"/>
      <use xlink:href="#DejaVuSans-72" transform="translate(154.736328 0)"/>
      <use xlink:href="#DejaVuSans-6f" transform="translate(193.599609 0)"/>
      <use xlink:href="#DejaVuSans-73" transform="translate(254.78125 0)"/>
      <use xlink:href="#DejaVuSans-6f" transform="translate(306.880859 0)"/>
      <use xlink:href="#DejaVuSans-6d" transform="translate(368.0625 0)"/>
      <use xlink:href="#DejaVuSans-61" transform="translate(465.474609 0)"/>
      <use xlink:href="#DejaVuSans-63" transform="translate(526.753906 0)"/>
      <use xlink:href="#DejaVuSans-65" transform="translate(581.734375 0)"/>
      <use xlink:href="#DejaVuSans-61" transform="translate(643.257812 0)"/>
      <use xlink:href="#DejaVuSans-65" transform="translate(704.537109 0)"/>
     </g>
    </g>
    <g id="patch_110">
     <path d="M 842.006283 362.113438 
L 862.006283 362.113438 
L 862.006283 355.113438 
L 842.006283 355.113438 
z
" style="fill: #ff7f0e; stroke: #ffffff; stroke-width: 0.5; stroke-linejoin: miter"/>
    </g>
    <g id="text_34">
     <!-- Unclassified -->
     <g transform="translate(870.006283 362.113438) scale(0.1 -0.1)">
      <defs>
       <path id="DejaVuSans-55" d="M 556 4666 
L 1191 4666 
L 1191 1831 
Q 1191 1081 1462 751 
Q 1734 422 2344 422 
Q 2950 422 3222 751 
Q 3494 1081 3494 1831 
L 3494 4666 
L 4128 4666 
L 4128 1753 
Q 4128 841 3676 375 
Q 3225 -91 2344 -91 
Q 1459 -91 1007 375 
Q 556 841 556 1753 
L 556 4666 
z
" transform="scale(0.015625)"/>
      </defs>
      <use xlink:href="#DejaVuSans-55"/>
      <use xlink:href="#DejaVuSans-6e" transform="translate(73.193359 0)"/>
      <use xlink:href="#DejaVuSans-63" transform="translate(136.572266 0)"/>
      <use xlink:href="#DejaVuSans-6c" transform="translate(191.552734 0)"/>
      <use xlink:href="#DejaVuSans-61" transform="translate(219.335938 0)"/>
      <use xlink:href="#DejaVuSans-73" transform="translate(280.615234 0)"/>
      <use xlink:href="#DejaVuSans-73" transform="translate(332.714844 0)"/>
      <use xlink:href="#DejaVuSans-69" transform="translate(384.814453 0)"/>
      <use xlink:href="#DejaVuSans-66" transform="translate(412.597656 0)"/>
      <use xlink:href="#DejaVuSans-69" transform="translate(447.802734 0)"/>
      <use xlink:href="#DejaVuSans-65" transform="translate(475.585938 0)"/>
      <use xlink:href="#DejaVuSans-64" transform="translate(537.109375 0)"/>
     </g>
    </g>
    <g id="patch_111">
     <path d="M 842.006283 376.791563 
L 862.006283 376.791563 
L 862.006283 369.791563 
L 842.006283 369.791563 
z
" style="fill: #ffbb78; stroke: #ffffff; stroke-width: 0.5; stroke-linejoin: miter"/>
    </g>
    <g id="text_35">
     <!-- Fimbriimonadaceae -->
     <g transform="translate(870.006283 376.791563) scale(0.1 -0.1)">
      <use xlink:href="#DejaVuSans-46"/>
      <use xlink:href="#DejaVuSans-69" transform="translate(50.269531 0)"/>
      <use xlink:href="#DejaVuSans-6d" transform="translate(78.052734 0)"/>
      <use xlink:href="#DejaVuSans-62" transform="translate(175.464844 0)"/>
      <use xlink:href="#DejaVuSans-72" transform="translate(238.941406 0)"/>
      <use xlink:href="#DejaVuSans-69" transform="translate(280.054688 0)"/>
      <use xlink:href="#DejaVuSans-69" transform="translate(307.837891 0)"/>
      <use xlink:href="#DejaVuSans-6d" transform="translate(335.621094 0)"/>
      <use xlink:href="#DejaVuSans-6f" transform="translate(433.033203 0)"/>
      <use xlink:href="#DejaVuSans-6e" transform="translate(494.214844 0)"/>
      <use xlink:href="#DejaVuSans-61" transform="translate(557.59375 0)"/>
      <use xlink:href="#DejaVuSans-64" transform="translate(618.873047 0)"/>
      <use xlink:href="#DejaVuSans-61" transform="translate(682.349609 0)"/>
      <use xlink:href="#DejaVuSans-63" transform="translate(743.628906 0)"/>
      <use xlink:href="#DejaVuSans-65" transform="translate(798.609375 0)"/>
      <use xlink:href="#DejaVuSans-61" transform="translate(860.132812 0)"/>
      <use xlink:href="#DejaVuSans-65" transform="translate(921.412109 0)"/>
     </g>
    </g>
    <g id="patch_112">
     <path d="M 842.006283 391.469688 
L 862.006283 391.469688 
L 862.006283 384.469688 
L 842.006283 384.469688 
z
" style="fill: #2ca02c; stroke: #ffffff; stroke-width: 0.5; stroke-linejoin: miter"/>
    </g>
    <g id="text_36">
     <!-- Methylophilaceae -->
     <g transform="translate(870.006283 391.469688) scale(0.1 -0.1)">
      <use xlink:href="#DejaVuSans-4d"/>
      <use xlink:href="#DejaVuSans-65" transform="translate(86.279297 0)"/>
      <use xlink:href="#DejaVuSans-74" transform="translate(147.802734 0)"/>
      <use xlink:href="#DejaVuSans-68" transform="translate(187.011719 0)"/>
      <use xlink:href="#DejaVuSans-79" transform="translate(250.390625 0)"/>
      <use xlink:href="#DejaVuSans-6c" transform="translate(309.570312 0)"/>
      <use xlink:href="#DejaVuSans-6f" transform="translate(337.353516 0)"/>
      <use xlink:href="#DejaVuSans-70" transform="translate(398.535156 0)"/>
      <use xlink:href="#DejaVuSans-68" transform="translate(462.011719 0)"/>
      <use xlink:href="#DejaVuSans-69" transform="translate(525.390625 0)"/>
      <use xlink:href="#DejaVuSans-6c" transform="translate(553.173828 0)"/>
      <use xlink:href="#DejaVuSans-61" transform="translate(580.957031 0)"/>
      <use xlink:href="#DejaVuSans-63" transform="translate(642.236328 0)"/>
      <use xlink:href="#DejaVuSans-65" transform="translate(697.216797 0)"/>
      <use xlink:href="#DejaVuSans-61" transform="translate(758.740234 0)"/>
      <use xlink:href="#DejaVuSans-65" transform="translate(820.019531 0)"/>
     </g>
    </g>
    <g id="patch_113">
     <path d="M 842.006283 406.147813 
L 862.006283 406.147813 
L 862.006283 399.147813 
L 842.006283 399.147813 
z
" style="fill: #98df8a; stroke: #ffffff; stroke-width: 0.5; stroke-linejoin: miter"/>
    </g>
    <g id="text_37">
     <!-- LiUU-11-161 -->
     <g transform="translate(870.006283 406.147813) scale(0.1 -0.1)">
      <use xlink:href="#DejaVuSans-4c"/>
      <use xlink:href="#DejaVuSans-69" transform="translate(55.712891 0)"/>
      <use xlink:href="#DejaVuSans-55" transform="translate(83.496094 0)"/>
      <use xlink:href="#DejaVuSans-55" transform="translate(156.689453 0)"/>
      <use xlink:href="#DejaVuSans-2d" transform="translate(229.882812 0)"/>
      <use xlink:href="#DejaVuSans-31" transform="translate(265.966797 0)"/>
      <use xlink:href="#DejaVuSans-31" transform="translate(329.589844 0)"/>
      <use xlink:href="#DejaVuSans-2d" transform="translate(393.212891 0)"/>
      <use xlink:href="#DejaVuSans-31" transform="translate(429.296875 0)"/>
      <use xlink:href="#DejaVuSans-36" transform="translate(492.919922 0)"/>
      <use xlink:href="#DejaVuSans-31" transform="translate(556.542969 0)"/>
     </g>
    </g>
    <g id="patch_114">
     <path d="M 842.006283 420.825938 
L 862.006283 420.825938 
L 862.006283 413.825938 
L 842.006283 413.825938 
z
" style="fill: #cccccc; stroke: #ffffff; stroke-width: 0.5; stroke-linejoin: miter"/>
    </g>
    <g id="text_38">
     <!-- Other -->
     <g transform="translate(870.006283 420.825938) scale(0.1 -0.1)">
      <use xlink:href="#DejaVuSans-4f"/>
      <use xlink:href="#DejaVuSans-74" transform="translate(78.710938 0)"/>
      <use xlink:href="#DejaVuSans-68" transform="translate(117.919922 0)"/>
      <use xlink:href="#DejaVuSans-65" transform="translate(181.298828 0)"/>
      <use xlink:href="#DejaVuSans-72" transform="translate(242.822266 0)"/>
     </g>
    </g>
   </g>
  </g>
 </g>
 <defs>
  <clipPath id="p21386f343a">
   <rect x="151.201562" y="22.318125" width="668.436" height="56.81875"/>
  </clipPath>
 </defs>
</svg>
