<?xml version="1.0" encoding="utf-8" standalone="no"?>
<!DOCTYPE svg PUBLIC "-//W3C//DTD SVG 1.1//EN" "http://www.w3.org/Graphics/SVG/1.1/DTD/svg11.dtd">
<svg width="3000px" height="3000px" version="1.1" xmlns="http://www.w3.org/2000/svg" xmlns:xlink="http://www.w3.org/1999/xlink">
<g id="bg">
<rect x="0" y="0" width="3000px" height="3000px" style="fill:none;"/>
</g>
<g id="ideograms">
<g id="highlighttrack_0">
<path d="M1925.110,546.471 A1044.000,1044.000 40.000 0,1 2543.990,1504.676 L2497.590,1504.468 A997.600,997.600 0.000 0,0 1906.216,588.850 Z" style="stroke-width:2.0;stroke:rgb(86,180,233);stroke-linecap:round;fill:rgb(86,180,233);" />
<path d="M2542.967,1546.433 A1044.000,1044.000 40.000 0,1 1612.647,2537.905 L1607.640,2491.776 A997.600,997.600 0.000 0,0 2496.613,1544.369 Z" style="stroke-width:2.0;stroke:rgb(86,180,233);stroke-linecap:round;fill:rgb(86,180,233);" />
<path d="M1547.871,2542.902 A1044.000,1044.000 40.000 0,1 748.706,2224.909 L782.097,2192.691 A997.600,997.600 0.000 0,0 1545.743,2496.551 Z" style="stroke-width:2.0;stroke:rgb(86,180,233);stroke-linecap:round;fill:rgb(86,180,233);" />
<path d="M606.575,2040.118 A1044.000,1044.000 40.000 0,1 473.881,1307.604 L519.487,1316.154 A997.600,997.600 0.000 0,0 646.283,2016.113 Z" style="stroke-width:2.0;stroke:rgb(86,180,233);stroke-linecap:round;fill:rgb(86,180,233);" />
<path d="M886.462,655.307 A1044.000,1044.000 40.000 0,1 1117.824,528.466 L1134.810,571.646 A997.600,997.600 0.000 0,0 913.730,692.849 Z" style="stroke-width:2.0;stroke:rgb(86,180,233);stroke-linecap:round;fill:rgb(86,180,233);" />
</g>
<g id="highlighttrack_1">
<path d="M715.873,1025.728 A916.400,916.400 40.000 0,1 949.435,767.424 L977.312,804.517 A870.000,870.000 0.000 0,0 755.576,1049.742 Z" style="stroke-width:2.0;stroke:rgb(0,114,178);stroke-linecap:round;fill:rgb(0,114,178);" />
</g>
<g id="highlighttrack_6">
<path d="M1550.530,2600.841 A1102.000,1102.000 40.000 0,1 706.967,2265.182 L740.358,2232.963 A1055.600,1055.600 0.000 0,0 1548.402,2554.490 Z" style="stroke-linecap:round;fill:rgb(38,89,168);" />
</g>
<g id="highlighttrack_7">
<path d="M2600.910,1549.013 A1102.000,1102.000 40.000 0,1 1618.905,2595.566 L1613.898,2549.437 A1055.600,1055.600 0.000 0,0 2554.555,1546.949 Z" style="stroke-linecap:round;fill:rgb(157,63,151);" />
</g>
<g id="highlighttrack_8">
<path d="M1948.727,493.497 A1102.000,1102.000 40.000 0,1 2601.989,1504.936 L2555.589,1504.728 A1055.600,1055.600 0.000 0,0 1929.833,535.876 Z" style="stroke-linecap:round;fill:rgb(79,72,158);" />
</g>
<g id="highlighttrack_9">
<path d="M765.501,1055.745 A858.400,858.400 40.000 0,1 984.281,813.790 L1012.158,850.882 A812.000,812.000 0.000 0,0 805.204,1079.759 Z" style="stroke-linecap:round;fill:rgb(175,126,53);" />
</g>
<g id="highlighttrack_10">
<path d="M556.940,2070.125 A1102.000,1102.000 40.000 0,1 416.875,1296.915 L462.480,1305.466 A1055.600,1055.600 0.000 0,0 596.648,2046.119 Z" style="stroke-linecap:round;fill:rgb(98,98,98);" />
</g>
<g id="highlighttrack_11">
<path d="M852.376,608.379 A1102.000,1102.000 40.000 0,1 1096.592,474.492 L1113.578,517.671 A1055.600,1055.600 0.000 0,0 879.645,645.921 Z" style="stroke-linecap:round;fill:rgb(144,144,144);" />
</g>
<path d="M1681.464,354.282 A1160.000,1160.000 40.000 1,1 1335.696,351.695 L1330.030,312.098 A1200.000,1200.000 0.000 1,0 1687.721,314.774 Z" style="stroke-width:2.0;stroke:rgb(0,0,0);stroke-linecap:round;fill:rgb(0,0,0);" />
<path d="M1681.464,354.282 A1160.000,1160.000 40.000 1,1 1335.696,351.695 L1330.030,312.098 A1200.000,1200.000 0.000 1,0 1687.721,314.774 Z" style="stroke-linecap:round;fill:rgb(255,255,255);" />
<line x1='1687.7' y1='314.8' x2='1689.3' y2='304.9' style="stroke-width:3.0;stroke:rgb(0,0,0);stroke-linecap:round;fill:none;" />
<text x="1698.5" y="301.3" font-size="26.0px" font-family="Arial, Helvetica, sans-serif" style="text-anchor:start;fill:rgb(0,0,0);" transform="rotate(279.0,1698.5,301.3)" >0 Mb</text>
<path d="M1681.464,354.282 A1160.000,1160.000 40.000 1,1 1335.696,351.695 L1330.030,312.098 A1200.000,1200.000 0.000 1,0 1687.721,314.774 Z" style="stroke-width:2.0;stroke:rgb(0,0,0);stroke-linecap:round;fill:none;" />
</g>
<g id="plot0">
<g id="plot0-axis">
</g>
</g>
<g id="plot1">
<g id="plot1-axis">
</g>
</g>
<defs>
<pattern id="hline" width="10" height="10" patternTransform="rotate(0 0 0)" patternUnits="userSpaceOnUse"><line x1="0" y1="0" x2="10" y2="0" style="stroke:black;stroke-width:5" /></pattern>
<pattern id="hline-sparse" width="10" height="10" patternTransform="rotate(0 0 0)" patternUnits="userSpaceOnUse"><line x1="0" y1="0" x2="10" y2="0" style="stroke:black;stroke-width:2" /></pattern>
<pattern id="vline" width="10" height="10" patternTransform="rotate(0 0 0)" patternUnits="userSpaceOnUse"><line x1="0" y1="0" x2="0" y2="10" style="stroke:black;stroke-width:5" /></pattern>
<pattern id="vline-sparse" width="10" height="10" patternTransform="rotate(0 0 0)" patternUnits="userSpaceOnUse"><line x1="0" y1="0" x2="0" y2="10" style="stroke:black;stroke-width:2" /></pattern>
<pattern id="checker" width="10" height="10" patternTransform="rotate(45 0 0)" patternUnits="userSpaceOnUse"><line x1="0" y1="0" x2="10" y2="0" style="stroke:black;stroke-width:2" /><line x1="0" y1="0" x2="0" y2="10" style="stroke:black;stroke-width:2" /></pattern>
<pattern id="checker" width="10" height="10" patternTransform="rotate(45 0 0)" patternUnits="userSpaceOnUse"><line x1="0" y1="0" x2="10" y2="0" style="stroke:black;stroke-width:5" /><line x1="0" y1="0" x2="0" y2="10" style="stroke:black;stroke-width:4" /></pattern>
</defs>

                    <text x="1500" y="535" font-size="30.0px" font-family="Arial, Helvetica, sans-serif" style="text-anchor:middle;" fill="rgb(0, 0, 0)">RNA (+)</text>
                    <text x="1500" y="570" font-size="30.0px" font-family="Arial, Helvetica, sans-serif" style="text-anchor:middle;" fill="rgb(0, 0, 0)">RNA (-)</text>
                    <text x="1500" y="495" font-size="50.0px" font-family="Arial, Helvetica, sans-serif" style="text-anchor:middle;" fill="rgb(0, 0, 0)">CDS (+)</text>
                    <text x="1500" y="630" font-size="50.0px" font-family="Arial, Helvetica, sans-serif" style="text-anchor:middle;" fill="rgb(0, 0, 0)">CDS (-)</text>
                    <text x="1500" y="810" font-size="50.0px" font-family="Arial, Helvetica, sans-serif" style="text-anchor:middle;" fill="rgb(0, 0, 0)">GC</text>
                    <text x="1500" y="840" font-size="35.0px" font-family="Arial, Helvetica, sans-serif" style="text-anchor:middle;" fill="rgb(0, 0, 0)">content</text>
                    <text x="1500" y="1050" font-size="50.0px" font-family="Arial, Helvetica, sans-serif" style="text-anchor:middle;" fill="rgb(0, 0, 0)">GC</text>
                    <text x="1500" y="1080" font-size="35.0px" font-family="Arial, Helvetica, sans-serif" style="text-anchor:middle;" fill="rgb(0, 0, 0)">skew</text>
                
                        <text x="1500" y="440" font-size="50.0px" font-family="Arial, Helvetica, sans-serif" style="text-anchor:middle;" fill="{font_colour}">COG (+)</text>
                        <text x="1500" y="685" font-size="50.0px" font-family="Arial, Helvetica, sans-serif" style="text-anchor:middle;" fill="{font_colour}">COG (-)</text>
<text x="1500" y="1560" font-size="64" font-family="Arial, Helvetica, sans-serif" text-anchor="middle" fill="rgb(0, 0, 0)">4.04 kb</text>
<text x="1500" y="1500" font-size="53.57142857142857" font-family="Arial, Helvetica, sans-serif" text-anchor="middle" fill="rgb(0, 0, 0)">Limnothrix_sp_HT2024_plasmid</text>
                    </svg>
